<svg width="513" height="444" viewBox="0 0 513 444" fill="none" xmlns="http://www.w3.org/2000/svg">
<g filter="url(#filter0_d_378_5005)">
<rect x="6.26367" y="113.561" width="429" height="332" rx="10.2816" transform="rotate(-15.1196 6.26367 113.561)" fill="#121364"/>
<rect x="3.99232" y="112.255" width="432.705" height="335.705" rx="12.134" transform="rotate(-15.1196 3.99232 112.255)" stroke="white" stroke-width="3.70465"/>
</g>
<g clip-path="url(#clip0_378_5005)">
<g opacity="0.37">
<path d="M297.39 242.628C337.053 253.167 345.911 285.234 317.175 314.254C288.443 343.271 232.995 358.256 193.331 347.716C153.671 337.178 144.817 305.108 173.55 276.091C202.286 247.071 257.73 232.091 297.39 242.628Z" fill="#87AEDD"/>
</g>
<g opacity="0.37">
<path d="M348.644 301.922C369.244 307.396 373.844 324.05 358.92 339.122C343.997 354.193 315.199 361.975 294.598 356.501C274.001 351.028 269.402 334.372 284.325 319.301C299.25 304.23 328.046 296.449 348.644 301.922Z" fill="#87AEDD"/>
</g>
<g opacity="0.37">
<path d="M198.542 248.923C219.143 254.397 223.743 271.051 208.818 286.123C193.895 301.194 165.098 308.975 144.497 303.502C123.899 298.029 119.301 281.372 134.224 266.302C149.148 251.23 177.944 243.449 198.542 248.923Z" fill="#87AEDD"/>
</g>
<path d="M267.993 58.0124C267.937 57.9975 267.883 57.9839 267.828 57.9713C267.757 57.9547 267.687 57.9394 267.617 57.9257C267.548 57.912 267.48 57.8997 267.412 57.8889C267.344 57.8781 267.277 57.8688 267.211 57.8607C267.143 57.8532 267.076 57.8463 267.011 57.8415C266.998 57.8407 266.986 57.8408 266.973 57.8393C266.968 57.839 266.963 57.8387 266.959 57.8382C266.91 57.8354 266.862 57.8318 266.814 57.8306C266.746 57.8282 266.68 57.8284 266.614 57.8297C266.548 57.8309 266.483 57.8343 266.418 57.8384C266.349 57.8431 266.28 57.85 266.212 57.8591C266.166 57.8651 266.121 57.8737 266.076 57.8818C266.07 57.8827 266.063 57.8838 266.056 57.8847C266.039 57.8875 266.023 57.8896 266.007 57.893C265.934 57.9076 265.863 57.9236 265.794 57.9431C265.715 57.9644 265.638 57.9893 265.563 58.017C265.477 58.0495 265.394 58.0851 265.314 58.1243C265.312 58.1257 265.311 58.1269 265.308 58.1275C265.305 58.1291 265.303 58.1305 265.301 58.1319C265.204 58.1815 265.111 58.235 265.023 58.2953C264.908 58.3747 264.802 58.4643 264.704 58.5622L262.186 61.1041C262.357 60.9314 262.557 60.7874 262.783 60.6732C262.785 60.6716 262.788 60.67 262.791 60.6684C263.016 60.5561 263.267 60.4742 263.539 60.4248C263.546 60.4236 263.553 60.4225 263.56 60.4214C263.832 60.3738 264.127 60.3583 264.442 60.378C264.446 60.3785 264.451 60.3788 264.456 60.3791C264.777 60.4 265.118 60.4567 265.478 60.5519L361.906 86.1739L364.423 83.6313L267.993 58.0124Z" fill="#58AFFB"/>
<path d="M370.955 89.9956C370.933 89.9241 370.911 89.852 370.886 89.7803C370.862 89.7086 370.837 89.6371 370.809 89.5655C370.782 89.4945 370.754 89.4231 370.724 89.3511C370.695 89.2784 370.664 89.206 370.631 89.1333C370.63 89.131 370.629 89.1297 370.628 89.1273C370.628 89.1258 370.627 89.1244 370.626 89.1229C370.595 89.0539 370.563 88.9851 370.53 88.9165C370.495 88.8421 370.458 88.7679 370.419 88.6944C370.381 88.6206 370.341 88.5473 370.3 88.4734C370.258 88.3989 370.217 88.3252 370.173 88.2514C370.139 88.1947 370.104 88.1377 370.068 88.0806C370.065 88.0764 370.062 88.0714 370.06 88.0671C370.052 88.0558 370.046 88.0434 370.038 88.0321C369.993 87.961 369.948 87.8901 369.901 87.8194C369.855 87.7495 369.808 87.6806 369.759 87.6113C369.713 87.5447 369.665 87.4794 369.616 87.4134C369.568 87.3482 369.52 87.283 369.47 87.2183C369.431 87.1687 369.392 87.1193 369.353 87.07C369.35 87.0665 369.348 87.0638 369.346 87.0611C369.337 87.0502 369.328 87.0385 369.319 87.0275C369.267 86.9634 369.214 86.8993 369.161 86.8363C369.102 86.7672 369.043 86.6984 368.983 86.6305C368.914 86.5527 368.843 86.4752 368.771 86.3988C368.694 86.3164 368.613 86.2366 368.533 86.1566C368.52 86.1429 368.506 86.1283 368.492 86.1138C368.475 86.0975 368.459 86.08 368.442 86.063C368.287 85.911 368.127 85.7635 367.965 85.6209C367.835 85.5077 367.704 85.3983 367.57 85.2913C367.481 85.2204 367.391 85.1508 367.299 85.0831C367.222 85.0264 367.145 84.9698 367.067 84.9151C366.991 84.8616 366.916 84.8096 366.839 84.7588C366.763 84.7083 366.687 84.6599 366.611 84.6122C366.596 84.6029 366.58 84.5939 366.565 84.5846C366.56 84.581 366.554 84.5784 366.548 84.575C366.49 84.539 366.433 84.5038 366.374 84.4697C366.294 84.423 366.214 84.3772 366.133 84.3333C366.051 84.288 365.969 84.2445 365.886 84.2028C365.804 84.1609 365.721 84.1207 365.639 84.0823C365.597 84.0626 365.556 84.0455 365.514 84.0268C365.505 84.0227 365.496 84.0185 365.486 84.0144C365.455 84.0012 365.424 83.9862 365.393 83.9729C365.314 83.9385 365.235 83.9067 365.155 83.8758C365.077 83.8453 364.999 83.8172 364.921 83.7892C364.845 83.763 364.77 83.7383 364.695 83.7145C364.62 83.6914 364.546 83.6698 364.472 83.6489C364.455 83.6444 364.438 83.6398 364.421 83.6345L361.904 86.1771C362.259 86.2718 362.615 86.4004 362.968 86.5563C362.977 86.5606 362.987 86.5647 362.996 86.5688C363.345 86.725 363.691 86.9088 364.031 87.1176C364.036 87.1212 364.042 87.1246 364.048 87.1272C364.731 87.5502 365.385 88.0713 365.974 88.6564C365.988 88.6702 366.002 88.6847 366.016 88.6993C366.303 88.9873 366.576 89.2882 366.828 89.603C366.83 89.6064 366.834 89.6105 366.837 89.6139C367.094 89.9356 367.331 90.2681 367.543 90.6088C367.545 90.613 367.548 90.618 367.551 90.6222C367.763 90.9637 367.951 91.3127 368.109 91.6655C368.109 91.6671 368.11 91.6692 368.11 91.6692C368.27 92.0241 368.399 92.383 368.495 92.7401L383.733 149.779C383.827 150.129 383.881 150.461 383.903 150.774C383.903 150.783 383.904 150.793 383.905 150.803C383.925 151.111 383.911 151.398 383.865 151.665C383.864 151.67 383.864 151.676 383.863 151.682C383.824 151.906 383.749 152.104 383.666 152.296C383.639 152.359 383.614 152.425 383.583 152.485C383.477 152.684 383.354 152.869 383.2 153.024L385.718 150.481C385.871 150.326 385.995 150.142 386.1 149.943C386.132 149.883 386.155 149.818 386.183 149.755C386.218 149.673 386.263 149.598 386.291 149.51C386.326 149.397 386.355 149.279 386.378 149.156C386.379 149.151 386.379 149.145 386.38 149.139C386.381 149.134 386.381 149.129 386.382 149.124C386.397 149.041 386.409 148.957 386.417 148.87C386.425 148.786 386.429 148.699 386.432 148.611C386.433 148.531 386.433 148.448 386.429 148.364C386.427 148.33 386.425 148.295 386.423 148.26C386.422 148.25 386.422 148.24 386.421 148.23C386.418 148.197 386.417 148.164 386.415 148.131C386.408 148.057 386.399 147.983 386.388 147.907C386.378 147.834 386.366 147.759 386.352 147.683C386.338 147.612 386.324 147.54 386.308 147.467C386.291 147.395 386.273 147.322 386.254 147.248C386.253 147.243 386.252 147.239 386.251 147.235L371.013 90.1965C370.994 90.1307 370.975 90.0634 370.955 89.9956Z" fill="#58AFFB"/>
<path d="M361.903 86.1763C364.78 86.941 367.729 89.8774 368.493 92.7395L383.731 149.778C384.496 152.64 382.786 154.339 379.908 153.574L283.48 127.952C280.603 127.188 277.654 124.252 276.89 121.389L261.652 64.3512C260.888 61.4889 262.598 59.7906 265.475 60.5551L361.903 86.1763Z" fill="#003783"/>
<path d="M282.141 115.636L287.637 110.663L293.626 116.271L299.554 119.745L303.446 115.682L312.522 109.789L318.746 114.99L324.232 117.465L329.946 122.374L332.337 109.253L339.938 110.641L342.687 106.801L350.502 106.754L361.067 102.867" stroke="#16C5DC" stroke-width="1.9889" stroke-miterlimit="10"/>
<path d="M359.961 99.774C358.044 99.2645 356.899 100.401 357.409 102.308C357.918 104.215 359.888 106.171 361.805 106.68C363.722 107.19 364.86 106.059 364.351 104.153C363.842 102.246 361.878 100.283 359.961 99.774Z" fill="#FF4272"/>
<path d="M360.464 101.667C359.598 101.437 359.08 101.95 359.31 102.812C359.54 103.674 360.431 104.559 361.298 104.79C362.164 105.02 362.679 104.509 362.449 103.647C362.219 102.784 361.33 101.897 360.464 101.667Z" fill="#212973"/>
<path d="M351.87 123.535L352.075 124.295C352.196 124.744 351.787 125.155 351.338 125.037L347.185 123.938C346.976 123.882 346.813 123.72 346.757 123.512L346.551 122.752C346.43 122.303 346.839 121.892 347.288 122.011L351.441 123.11C351.65 123.164 351.813 123.326 351.87 123.535Z" fill="#7BAEFF"/>
<path d="M366.032 130.758L366.238 131.52C366.359 131.967 365.95 132.378 365.502 132.261L348.21 127.723C348.001 127.668 347.837 127.506 347.781 127.297L347.575 126.535C347.454 126.087 347.861 125.676 348.31 125.794L365.603 130.332C365.812 130.387 365.976 130.549 366.032 130.758Z" fill="#7BAEFF"/>
<g opacity="0.53">
<path d="M360.951 136.46L361.156 137.222C361.277 137.669 360.869 138.08 360.421 137.962L350.257 135.295C350.048 135.24 349.885 135.078 349.827 134.869L349.622 134.107C349.501 133.66 349.909 133.248 350.357 133.366L360.521 136.033C360.73 136.088 360.894 136.251 360.951 136.46Z" fill="#7BAEFF"/>
</g>
<path d="M364.375 133.841L364.581 134.603C364.702 135.05 364.294 135.462 363.846 135.344L349.235 131.51C349.026 131.455 348.862 131.292 348.806 131.084L348.6 130.322C348.479 129.874 348.888 129.463 349.335 129.58L363.946 133.415C364.155 133.469 364.319 133.632 364.375 133.841Z" fill="#7BAEFF"/>
<path d="M287.212 90.6161L289.069 88.7396L290.796 95.2039L288.939 97.0795L287.212 90.6161Z" fill="#CE7C56"/>
<path d="M281.057 88.9802L282.915 87.1038L289.07 88.74L287.213 90.6164L281.057 88.9802Z" fill="#FFBE3D"/>
<path d="M287.212 90.6175L288.939 97.0809L282.782 95.445L281.056 88.9813L287.212 90.6175Z" fill="#E2A029"/>
<path d="M295.411 87.4253L297.269 85.5497L300.54 97.7937L298.683 99.6691L295.411 87.4253Z" fill="#2670D4"/>
<path d="M289.26 85.79L291.117 83.9146L297.269 85.5493L295.411 87.4249L289.26 85.79Z" fill="#58AFFB"/>
<path d="M295.411 87.4262L298.682 99.67L292.53 98.0353L289.26 85.7914L295.411 87.4262Z" fill="#2689FD"/>
<path d="M303.834 85.0835L305.692 83.2078L310.28 100.383L308.422 102.258L303.834 85.0835Z" fill="#CC096A"/>
<path d="M297.684 83.4482L299.541 81.5726L305.694 83.2073L303.836 85.0829L297.684 83.4482Z" fill="#EE2C6A"/>
<path d="M303.835 85.0826L308.423 102.257L302.272 100.623L297.683 83.4479L303.835 85.0826Z" fill="#EE2C6A"/>
<path d="M312.398 83.2508L314.255 81.3744L320.024 102.971L318.167 104.846L312.398 83.2508Z" fill="#5B5BD6"/>
<path d="M306.245 81.617L308.102 79.7406L314.254 81.3752L312.397 83.2516L306.245 81.617Z" fill="#B391FF"/>
<path d="M312.397 83.2509L318.166 104.846L312.014 103.212L306.245 81.6162L312.397 83.2509Z" fill="#7974F5"/>
<path d="M261.265 225.282C261.265 225.282 262.816 227.793 261.003 229.926C259.189 232.06 258.186 232.688 256.565 233.873C254.943 235.058 253.912 237.877 255.199 239.321C256.486 240.766 260.459 239.991 262.777 238.618C265.095 237.245 264.911 234.905 267.053 233.429C269.193 231.954 269.766 230.754 270.274 229.87C270.782 228.986 267.176 223.152 267.176 223.152L260.506 225.786" fill="#382747"/>
<path d="M240.389 156.703C240.389 156.703 242.084 171.148 242.119 176.382C242.153 181.616 242.645 200.802 244.459 204.451C246.273 208.1 253.988 216.227 256.526 220.509C259.062 224.792 261.133 228.371 262.301 228.608C263.469 228.844 266.674 227.427 267.897 223.784C269.121 220.141 267.808 222.429 267.808 222.429C267.808 222.429 264.951 214.921 263.485 212.558C262.018 210.194 256.381 202.61 255.874 199.711C255.367 196.813 256.877 180.95 258.928 173.221C260.979 165.491 261.418 157.921 261.418 157.921L240.389 156.703Z" fill="#535E6D"/>
<path d="M274.782 229.356C274.782 229.356 275.486 231.407 273.671 233.54C271.857 235.673 271.702 236.761 270.081 237.946C268.459 239.131 267.428 241.949 268.715 243.394C270.002 244.839 273.975 244.064 276.293 242.691C278.611 241.318 278.427 238.978 280.569 237.502C282.71 236.027 283.282 234.827 283.79 233.943C284.298 233.059 283.267 230.349 283.267 230.349L274.021 229.859" fill="#382747"/>
<path d="M245.803 159.381C245.803 159.381 249.632 170.489 252.009 173.159C254.386 175.828 255.268 178.073 257.222 182.237C259.175 186.401 269.738 215.284 270.941 220.755C272.142 226.226 273.81 232.399 274.276 233.1C274.742 233.802 280.185 234.539 283.536 230.599C283.536 230.599 282.57 223.96 281.069 216.362C279.568 208.765 276.67 199.061 274.871 189.336C273.071 179.611 272.343 161.593 270.605 155.163C270.605 155.163 259.302 162.357 245.803 159.381Z" fill="#636F82"/>
<path d="M245.803 159.381C245.803 159.381 246.539 161.519 247.567 164.143C250.775 164.864 254.875 165.56 258.976 165.619C267.703 165.745 269.357 168.61 271.337 175.94C273.317 183.27 272.236 191.428 274.603 198.654C276.373 204.06 281.358 221.341 282.814 231.344C283.062 231.115 283.305 230.871 283.535 230.6C283.535 230.6 282.569 223.961 281.069 216.363C279.568 208.765 276.67 199.061 274.871 189.337C273.071 179.612 272.343 161.594 270.606 155.164C270.606 155.164 259.302 162.357 245.803 159.381Z" fill="#535E6D"/>
<path d="M224.622 122.773C224.622 122.773 232.897 111.069 235.009 110.279C237.554 109.374 241.038 109.38 242.88 112.838C244.724 116.296 243.517 119.632 241.851 121.233C240.186 122.833 223.154 138.415 220.118 139.219C217.081 140.022 214.44 137.935 215.532 134.166C216.624 130.396 224.622 122.773 224.622 122.773Z" fill="#E2EDFF"/>
<path d="M241.151 106.731C241.151 106.731 241.21 106.862 241.225 107.088C241.279 107.921 241.328 110.075 241.441 110.955C241.55 111.798 242.801 113.026 245.024 112.494C247.248 111.961 250.834 110.201 251.514 107.265C251.309 106.814 250.394 101.851 250.172 99.3261L241.151 106.731Z" fill="#E16B40"/>
<path d="M250.322 104.816C250.322 104.816 263.061 110.288 264.722 112.67C266.383 115.052 268.206 122.292 266.994 127.647C265.782 133.003 271.322 152.961 271.267 156.637C271.211 160.313 262.018 163.474 255.935 163.617C249.852 163.76 239.498 161.433 239.569 154.463C239.675 144.172 235.621 132.452 234.582 129.466C233.543 126.481 232.267 118.692 232.565 113.22C232.628 112.065 235.966 109.574 235.966 109.574C235.966 109.574 239.356 106.723 250.322 104.816Z" fill="#455BAF"/>
<path d="M251.067 106.126C241.718 107.752 237.942 110.457 237.03 111.221C237.367 113.1 237.946 115.546 238.913 117.665C240.792 121.784 245.71 133.165 245.71 133.165C245.71 133.165 248.71 121.912 251.334 116.906C253.181 113.382 255.031 110.032 255.967 108.352C253.276 107.076 251.067 106.126 251.067 106.126Z" fill="#E1E8F2"/>
<path d="M241.16 106.731C241.16 106.731 241.218 106.862 241.234 107.088C241.288 107.921 241.337 110.075 241.45 110.955C241.559 111.798 242.81 113.026 245.033 112.494C247.257 111.961 250.842 110.201 251.523 107.265C251.318 106.814 250.403 101.851 250.181 99.3261L241.16 106.731Z" fill="#FF8654"/>
<path d="M230.162 94.0996C228.901 87.0997 232.668 81.4221 239.044 80.5659C239.044 80.5659 245.634 78.789 250.573 83.2921C255.513 87.7953 253.152 94.0579 251.624 98.0224C250.967 99.6613 250.478 100.919 250.172 101.718C250.064 102.016 249.962 102.318 249.838 102.599C249.817 102.654 249.805 102.685 249.805 102.685L249.796 102.682C248.674 105.181 246.985 106.997 245.624 108.038C243.359 109.768 240.174 110.482 237.883 109.362C235.593 108.243 231.423 101.099 230.162 94.0996Z" fill="#FF9F75"/>
<path d="M240.723 119.761L243.816 115.06L248.608 119.875L251.328 116.917C248.706 121.929 245.711 133.164 245.711 133.164C245.711 133.164 241.608 123.67 239.466 118.887L240.723 119.761Z" fill="#CFDAE4"/>
<path d="M242.887 126.663L242.97 119.777L242.104 117.66L243.816 115.061L246.14 117.397L244.776 119.539L246.849 129.168C246.155 131.499 245.71 133.166 245.71 133.166C245.71 133.166 244.408 130.151 242.887 126.663Z" fill="#00A5FF"/>
<path d="M251.011 82.3429C251.011 82.3429 255.456 85.785 254.442 91.8619C253.428 97.9387 251.044 101.489 250.174 101.718C249.304 101.947 248.803 101.922 248.739 101.215C248.674 100.509 248.802 98.003 248.802 98.003C248.802 98.003 252.116 96.0628 251.127 93.8015C250.138 91.5405 248.725 91.6692 247.556 92.9157C246.388 94.1622 246.631 95.2794 246.169 96.4617C245.706 97.6439 246.401 99.7891 245.694 99.8535C244.987 99.918 244.306 99.4809 243.857 98.4533C243.408 97.4258 242.867 96.1923 243.562 94.4196C244.255 92.647 241.916 91.2208 242.43 89.0372C242.944 86.8528 243.496 85.8769 243.496 85.8769C243.496 85.8769 243.214 87.47 238.743 88.4466C234.273 89.4239 232.513 90.4388 230.419 90.1304C228.325 89.822 227.746 87.3816 228.414 86.1096C229.082 84.8377 231.369 83.3474 233.796 81.0605C236.224 78.7737 238.138 78.6702 241.992 77.9637C245.846 77.2562 250.754 79.5168 251.011 82.3429Z" fill="#CE7C56"/>
<path d="M243.433 95.0392C243.433 95.0392 245.341 102.057 243.655 103.521C241.97 104.986 241.031 101.18 237.866 101.257C234.7 101.333 232.694 102.066 233.16 103.461C233.625 104.857 235.708 109.616 238.667 110.066C241.627 110.516 245.532 108.807 247.111 107.098C248.69 105.389 246.195 97.0296 246.636 95.3826C247.079 93.7345 243.433 95.0392 243.433 95.0392Z" fill="#CE7C56"/>
<path d="M220.119 139.219C220.119 139.219 217.561 141.415 213.885 139.303C210.21 137.192 197.063 123.771 197.063 123.771C197.063 123.771 196.458 120.001 200.546 118.276C200.546 118.276 214.069 128.49 216.816 130.232C219.563 131.974 223.136 135.657 220.119 139.219Z" fill="#FF9F75"/>
<path d="M265.308 132.708C265.308 132.708 256.389 121.486 256.221 119.238C256.065 116.541 257.046 113.199 260.882 112.398C264.718 111.597 267.582 113.689 268.653 115.736C269.724 117.783 277.902 133.79 277.823 136.93C277.744 140.07 275.002 142.021 271.689 139.918C268.374 137.814 265.308 132.708 265.308 132.708Z" fill="#E2EDFF"/>
<path d="M277.804 135.224C277.804 135.224 276.101 132.315 271.939 133.114C267.776 133.914 248.753 142.745 248.753 142.745C248.753 142.745 246.954 146.112 250.256 149.074C250.256 149.074 268.589 143.396 271.754 142.645C274.919 141.894 279.497 139.574 277.804 135.224Z" fill="#FF9F75"/>
<path d="M243.821 141.834C242.702 141.675 239.491 141.176 238.878 141.187C238.253 141.433 238.466 143.076 239.696 143.359C240.926 143.642 242.684 144.171 243.001 144.778C243.319 145.384 242.351 147.494 241.803 148.027C241.255 148.559 236.65 150.804 236.653 151.668C236.656 152.533 238.088 152.493 238.889 152.046C239.692 151.598 240.698 151.269 240.698 151.269C240.698 151.269 241.058 151.749 241.898 151.868C242.738 151.987 243.046 151.847 243.387 152.043C243.728 152.239 244.285 152.377 245.335 152.208C246.386 152.04 248.22 150.505 249.517 149.751C250.813 148.997 252.1 148.211 252.1 148.211L249.463 143.418C249.292 143.106 248.996 142.884 248.648 142.808C247.463 142.552 244.693 141.958 243.821 141.834Z" fill="#FF9F75"/>
<path d="M200.546 118.276C200.546 118.276 198.896 115.617 197.549 114.842C196.201 114.068 195.51 113.426 194.786 112.277C194.061 111.127 194.122 107.903 193.254 108.137C192.385 108.372 191.575 110.35 192.01 111.578C192.445 112.806 192.687 114.086 192.476 114.454C192.265 114.821 188.193 113.541 187.213 112.977C186.234 112.414 183.332 111.236 182.936 112.067C182.54 112.899 182.986 113.399 184.281 113.981C185.576 114.563 188.741 115.566 189.405 116.111C190.07 116.655 189.562 116.69 188.125 116.353C186.689 116.017 187.124 117.245 187.674 118.131C188.224 119.017 187.092 119.426 188.151 120.279C189.21 121.131 188.43 120.928 189.585 121.754C190.74 122.58 191.185 123.081 192.929 123.024C194.673 122.966 196.792 123.533 197.895 124.166C198.998 124.799 201.816 122.589 201.816 122.589L200.546 118.276Z" fill="#FF9F75"/>
<path d="M130.349 165.789C130.349 165.789 134.013 165.623 135.568 168.706C137.122 171.79 134.75 175.212 136.961 177.294C139.171 179.376 141.058 178.35 142.751 182.324C144.443 186.298 139.615 195.123 132.823 189.437C126.032 183.749 130.349 165.789 130.349 165.789Z" fill="#4D2C63"/>
<path d="M118.518 201.464C118.518 201.464 112.522 204.933 111.847 209.275C111.171 213.617 119.516 242.793 131.821 252.409C144.126 262.026 161.391 259.21 164.802 256.44C168.214 253.669 187.587 236.418 187.797 230.352C188.008 224.287 178.228 222.307 172.907 221.433C167.587 220.56 163.757 218.359 159.078 211.304C154.398 204.248 149.498 191.244 145.9 189.905C142.304 188.567 134.049 187.099 118.518 201.464Z" fill="#FFBE3D"/>
<path d="M151.469 198.336C151.469 198.336 145.8 186.116 143.983 185.028C141.783 183.76 138.562 183.177 136.273 186.061C133.984 188.946 134.534 192.234 135.802 193.995C137.071 195.757 148.731 210.097 151.403 211.354C154.073 212.61 156.868 211.129 156.497 207.459C156.127 203.79 151.469 198.336 151.469 198.336Z" fill="#EE428C"/>
<path d="M149.651 210.129C149.651 210.129 153.117 213.278 156.749 210.99C160.38 208.701 160.884 188.786 161.926 187.198C161.926 187.198 161.341 182.615 157.187 183.575C157.187 183.575 151.94 201.665 151.022 203.711C150.105 205.756 148.618 208.119 149.651 210.129Z" fill="#FF8654"/>
<path d="M176.073 263.216L171.389 261.957L156.9 268.559L161.584 269.817L176.073 263.216Z" fill="#00265A"/>
<path d="M161.583 269.816L156.899 268.557L154.491 270.975L159.176 272.235L161.583 269.816Z" fill="#002F71"/>
<path d="M148.213 291.192L143.528 289.934L143.997 291.647L148.682 292.906L148.213 291.192Z" fill="#002A65"/>
<path d="M159.176 272.237L154.492 270.977L143.529 289.934L148.213 291.193L159.176 272.237Z" fill="#00357F"/>
<path d="M159.176 272.234L148.213 291.191L148.682 292.905L160.198 275.974L162.606 273.556L176.54 264.929L176.072 263.214L161.584 269.816L159.176 272.234Z" fill="#001E46"/>
<path d="M138.366 273.403L141.779 269.957L157.621 268.363L154.208 271.81L138.366 273.403Z" fill="#00265A"/>
<path d="M154.208 271.81L157.621 268.363L160.92 269.239L157.507 272.687L154.208 271.81Z" fill="#002F71"/>
<path d="M176.525 283.543L179.938 280.096L180.397 281.812L176.984 285.26L176.525 283.543Z" fill="#002A65"/>
<path d="M157.507 272.685L160.92 269.238L179.937 280.095L176.524 283.541L157.507 272.685Z" fill="#00357F"/>
<path d="M157.507 272.684L176.524 283.54L176.983 285.257L158.507 276.43L155.208 275.553L138.825 275.118L138.366 273.401L154.208 271.807L157.507 272.684Z" fill="#001E46"/>
<path d="M138.366 273.403L141.779 269.957L157.621 268.363L154.208 271.81L138.366 273.403Z" fill="#00265A"/>
<path d="M154.208 271.81L157.621 268.363L160.92 269.239L157.507 272.687L154.208 271.81Z" fill="#002F71"/>
<path d="M176.525 283.543L179.938 280.096L180.397 281.812L176.984 285.26L176.525 283.543Z" fill="#002A65"/>
<path d="M157.507 272.685L160.92 269.238L179.937 280.095L176.524 283.541L157.507 272.685Z" fill="#00357F"/>
<path d="M157.507 272.684L176.524 283.54L176.983 285.257L158.507 276.43L155.208 275.553L138.825 275.118L138.366 273.401L154.208 271.807L157.507 272.684Z" fill="#001E46"/>
<path d="M155.917 252.502L160.474 269.558L157.96 272.097L153.403 255.04L155.917 252.502Z" fill="#0046A6"/>
<path d="M153.404 255.042L157.961 272.098L154.492 271.176L149.935 254.12L153.404 255.042Z" fill="#003783"/>
<path d="M155.918 252.503L153.404 255.041L149.935 254.119L152.449 251.581L155.918 252.503Z" fill="#4DA5DC"/>
<path d="M206.516 276.851C206.516 276.851 211.458 280.015 215.039 280.558C219.012 282.679 222.481 284.078 222.72 286.486C222.575 288.998 214.921 289.142 211.526 288.274C208.132 287.405 204.904 285.118 204.904 285.118L205.765 286.368C205.983 286.684 205.719 287.102 205.339 287.049C204.873 286.984 204.319 286.832 203.9 286.488C203.018 285.765 201.582 282.993 201.842 281.412C202.101 279.831 206.516 276.851 206.516 276.851Z" fill="#382747"/>
<path d="M172 250.794C172 250.794 173.793 257.432 180.285 261.688C186.776 265.943 196.312 274.051 200.332 279.865C203.801 283.389 206.255 284.297 208.996 280.44C210.232 279.419 205.952 274.256 199.626 267.368C193.442 260.636 182.17 245.598 179.798 244.235C177.427 242.873 170.38 242.329 172 250.794Z" fill="#FF8654"/>
<path d="M207.093 276.32C207.093 276.32 209.119 278.864 213.277 280.522C217.434 282.18 213.799 286.013 211.159 285.902C208.519 285.791 203.301 283.767 202.536 282.462C201.772 281.157 200.787 274.21 207.093 276.32Z" fill="#FF8654"/>
<path d="M213.036 264.375C213.036 264.375 217.978 267.538 221.559 268.082C225.532 270.202 229.001 271.601 229.24 274.009C229.094 276.521 221.44 276.666 218.045 275.797C214.651 274.929 211.423 272.641 211.423 272.641L212.284 273.891C212.502 274.207 212.239 274.625 211.858 274.573C211.393 274.508 210.839 274.355 210.42 274.011C209.537 273.288 208.102 270.517 208.361 268.935C208.62 267.354 213.036 264.375 213.036 264.375Z" fill="#382747"/>
<path d="M178.519 238.318C178.519 238.318 180.313 244.956 186.804 249.211C193.296 253.467 202.832 261.574 206.851 267.389C210.32 270.912 212.774 271.82 215.516 267.963C216.751 266.943 212.472 261.78 206.146 254.892C199.961 248.159 188.689 233.122 186.318 231.759C183.947 230.396 176.9 229.852 178.519 238.318Z" fill="#FF8654"/>
<path d="M213.612 263.839C213.612 263.839 215.639 266.383 219.796 268.041C223.953 269.699 220.318 273.532 217.678 273.421C215.038 273.31 209.82 271.286 209.055 269.982C208.291 268.677 207.307 261.73 213.612 263.839Z" fill="#FF8654"/>
<path d="M136.956 230.665C136.956 230.665 137.557 242.042 144.61 247.555C151.664 253.067 168.362 253.089 169.441 254.034C170.521 254.979 172.768 256.432 174.688 255.913C176.609 255.394 189.669 244.241 189.565 236.232C187.589 231.203 185.445 230.133 182.865 228.976C180.285 227.818 164.938 225.164 163.858 224.219C162.779 223.275 161.772 221.074 161.772 221.074L136.956 230.665Z" fill="#5155D4"/>
<path d="M124.503 191.987C124.503 191.987 117.888 197.689 117.168 200.819C116.448 203.95 118.222 210.516 125.503 215.008C130.299 218.996 135.952 231.952 138.785 234.709C142.071 237.214 153.821 234.822 159.365 230.715C164.91 226.607 163.242 220.608 161.393 218.911C156.187 214.136 156.224 208.468 155.59 205.639C154.956 202.809 156.291 199.056 153.902 195.527C151.513 191.997 144.588 190.997 143.288 190.044C141.986 189.091 137.852 185.38 134.537 186.145C131.22 186.911 124.503 191.987 124.503 191.987Z" fill="#EE428C"/>
<path opacity="0.76" d="M161.394 218.912C156.189 214.137 156.226 208.469 155.592 205.64C155.154 203.687 155.653 201.294 155.22 198.839C152.086 203.891 147.089 209.979 140.369 212.023C132.61 214.382 124.531 211.819 119.678 209.645C121.011 211.531 122.9 213.403 125.504 215.009C130.3 218.997 135.953 231.953 138.786 234.71C142.072 237.215 153.822 234.823 159.366 230.716C164.91 226.608 163.243 220.609 161.394 218.912Z" fill="#CC096A"/>
<path d="M159.314 216.605C157.6 214.306 157.038 211.88 156.585 209.821C144.309 222.683 131.015 221.281 131.015 221.281L131.02 221.298C131.347 222.508 132.17 223.629 132.842 224.782C132.856 224.805 132.749 224.86 132.763 224.883C133.088 225.441 133.35 226.014 133.666 226.563C133.681 226.592 133.667 226.626 133.683 226.654C133.817 226.887 133.935 227.123 134.067 227.352C134.232 227.64 134.391 227.933 134.553 228.214C134.565 228.236 134.574 228.259 134.586 228.28C149.616 227.258 156.94 219.677 159.314 216.605Z" fill="#4D2C63"/>
<path d="M157.55 170.741C157.817 170.568 158.142 170.462 158.459 170.547C157.696 170.342 157.18 170.246 156.566 170.862C156.323 171.106 156.08 171.351 155.837 171.595C154.45 172.987 153.063 174.38 151.677 175.772C148.477 178.985 145.278 182.198 142.078 185.41C141.13 186.362 140.379 187.345 140.329 188.767C140.284 190.128 140.953 191.643 141.305 192.93C141.95 195.29 142.595 197.651 143.24 200.011C143.437 200.729 143.632 201.447 143.829 202.166C144.073 203.06 144.503 203.402 145.378 203.636C144.642 203.439 144.51 202.531 144.337 201.897C144.085 200.975 143.833 200.054 143.581 199.132C142.928 196.744 142.276 194.355 141.623 191.965C141.16 190.268 140.56 188.685 141.492 186.992C142.048 185.982 143.13 185.153 143.929 184.35C146.686 181.583 149.442 178.815 152.199 176.047C153.4 174.841 154.601 173.634 155.803 172.428C156.346 171.881 156.893 171.165 157.55 170.741Z" fill="#E2EDFF"/>
<path d="M157.197 171.028C158.046 170.176 158.987 170.415 159.302 171.569L162.779 184.29C163.094 185.445 162.662 187.07 161.813 187.922L146.638 203.161C145.789 204.013 144.846 203.768 144.531 202.614L141.056 189.892C140.74 188.738 141.174 187.119 142.022 186.267L157.197 171.028Z" fill="#7BAEFF"/>
<path d="M131.683 213.575C131.683 213.575 126.015 201.355 124.197 200.266C121.997 198.998 118.776 198.415 116.488 201.3C114.198 204.184 114.749 207.472 116.017 209.234C117.286 210.995 128.946 225.336 131.618 226.592C134.289 227.849 137.083 226.367 136.712 222.697C136.341 219.029 131.683 213.575 131.683 213.575Z" fill="#EE428C"/>
<path d="M129.864 225.367C129.864 225.367 133.33 228.516 136.962 226.228C140.593 223.939 141.097 204.025 142.139 202.436C142.139 202.436 141.555 197.853 137.4 198.813C137.4 198.813 132.154 216.903 131.235 218.949C130.317 220.995 128.831 223.358 129.864 225.367Z" fill="#FF8654"/>
<path d="M137.398 199.501C137.398 199.501 137 195.488 138.353 193.886C139.706 192.284 143.27 190.222 144.64 191.226C146.01 192.229 146.754 197.524 145.868 198.312C144.982 199.101 142.757 200.526 142.757 200.526C142.757 200.526 142.38 202.689 141.228 203C140.076 203.311 137.398 199.501 137.398 199.501Z" fill="#FF8654"/>
<path d="M157.435 181.131C157.056 181.513 156.864 182.235 157.004 182.751C157.146 183.268 157.565 183.377 157.944 182.995C158.324 182.614 158.516 181.892 158.374 181.375C158.233 180.86 157.814 180.751 157.435 181.131Z" fill="#EAEEEE"/>
<path d="M132.394 187.458C132.394 187.458 132.409 187.599 132.509 187.801C132.88 188.545 133.916 190.419 134.26 191.231C134.589 192.01 134.129 193.691 131.953 194.348C129.776 195.004 125.815 195.288 123.759 193.106C123.71 192.616 122.01 187.894 120.936 185.613L132.394 187.458Z" fill="#E16B40"/>
<path d="M132.798 170.232C129.419 164.019 122.963 161.962 117.485 165.267C117.485 165.267 111.269 167.99 110.242 174.557C109.215 181.124 114.944 184.512 118.597 186.634C120.127 187.496 121.289 188.167 122.024 188.596C122.293 188.761 122.561 188.93 122.831 189.071C122.882 189.101 122.909 189.117 122.909 189.117L122.914 189.109C125.34 190.349 127.78 190.706 129.484 190.665C132.318 190.598 135.232 189.168 136.311 186.874C137.391 184.581 136.177 176.446 132.798 170.232Z" fill="#FF8654"/>
<path d="M129.814 164.318C129.814 164.318 133.001 164.418 132.035 169.487C131.069 174.556 127.104 174.116 127.979 177.864C128.854 181.611 128.757 183.286 126.041 185.944C123.325 188.601 127.65 189.355 129.31 195.501C130.971 201.647 125.196 204.169 122.15 203.068C119.105 201.968 120.798 199.587 116.569 197.157C112.341 194.728 108.214 194.195 109.529 188.893C110.844 183.593 111.041 183.814 108.996 177.772C106.952 171.73 108.731 167.128 113.787 163.976C118.842 160.826 124.51 159.432 129.814 164.318Z" fill="#4D2C63"/>
<path d="M270.132 304.172C271.001 309.115 267.346 313.619 263.726 316.492C259.784 319.62 255.086 321.721 250.229 322.967C245.27 324.238 239.97 324.656 234.923 323.668C230.518 322.806 225.454 320.45 224.192 315.726C225.111 319.166 226.119 321.941 229.321 323.955C233.442 326.548 238.745 327.112 243.513 326.823C252.814 326.262 264.572 322.142 269.433 313.552C271.388 310.095 270.978 307.12 270.008 303.487C270.059 303.714 270.1 303.943 270.132 304.172Z" fill="#ADCDFC"/>
<path d="M260.693 295.868C271.06 298.623 273.386 307.003 265.876 314.588C258.365 322.173 243.859 326.092 233.492 323.338C223.125 320.583 220.82 312.197 228.33 304.612C235.84 297.027 250.326 293.114 260.693 295.868Z" fill="#E2EDFF"/>
<path d="M245.817 288.656L251.166 308.681L248.216 311.661L242.866 291.636L245.817 288.656Z" fill="#C7D8F2"/>
<path d="M242.866 291.637L248.216 311.662L244.143 310.579L238.793 290.555L242.866 291.637Z" fill="#7BAEFF"/>
<path d="M245.815 288.656L242.865 291.636L238.792 290.554L241.742 287.574L245.815 288.656Z" fill="#4DA5DC"/>
<path d="M312.88 212.617C317.09 228.376 308.072 243.796 297.426 254.733C285.144 267.349 269.192 276.217 252.813 282.331C236.249 288.514 218.432 291.955 200.736 291.941C192.009 291.934 183.238 291.05 174.754 288.967C167.17 287.106 159.713 284.249 153.201 279.887C145.914 275.005 139.903 268.04 137.606 259.443C138.669 263.42 139.564 267.451 141.448 271.143C144.294 276.724 148.744 281.331 153.846 284.906C160.187 289.349 167.504 292.288 174.964 294.244C183.387 296.452 192.157 297.462 200.856 297.54C218.266 297.697 235.674 294.518 252.078 288.745C268.452 282.982 284.225 274.39 296.857 262.372C307.696 252.06 317.554 237.217 315.066 221.533C314.586 218.514 313.668 215.565 312.88 212.617Z" fill="#ADCDFC"/>
<path d="M277.269 183.484C316.932 194.023 325.791 226.09 297.054 255.11C268.322 284.127 212.874 299.112 173.21 288.572C133.55 278.034 124.696 245.964 153.429 216.947C182.165 187.927 237.609 172.946 277.269 183.484Z" fill="#E2EDFF"/>
<path d="M270.51 215.497C270.51 215.497 268.872 214.394 267.305 213.168C265.737 211.943 264.274 211.102 263.059 211.946C261.844 212.79 262.444 213.864 262.444 213.864C262.444 213.864 262.537 214.972 262.709 216.368C262.88 217.765 263.739 219.799 265.963 220.022C268.187 220.246 270.037 219.849 270.037 219.849L270.51 215.497Z" fill="#EA9273"/>
<path d="M269.189 220.904C269.189 220.904 266.739 220.226 266.7 218.176C266.662 216.126 266.926 214.818 266.789 213.928C266.652 213.037 265.375 210.601 266.206 209.861C267.036 209.121 267.365 209.96 267.695 210.798C268.025 211.636 269.223 213.785 270.033 214.494C270.843 215.202 271.949 216.243 271.949 216.243C271.949 216.243 271.154 220.166 269.189 220.904Z" fill="#FF9F75"/>
<path d="M296.011 231.609C296.011 231.609 292.848 235.255 287.575 232.704C282.302 230.152 270.111 221.746 268.799 221.056C268.799 221.056 267.929 217.524 270.977 215.311C270.977 215.311 279.414 219.2 283.637 220.663C287.859 222.126 301.402 225.439 296.011 231.609Z" fill="white"/>
<path d="M268.697 219.523C268.646 220.42 268.799 221.056 268.799 221.056C270.111 221.746 282.303 230.152 287.576 232.703C290.974 234.348 293.489 233.419 294.852 232.55C286.065 230.692 273.623 222.794 268.697 219.523Z" fill="#C7D8F2"/>
<path d="M302.137 221.662C302.137 221.662 315.739 213.568 318.223 213.717C321.198 213.946 324.709 215.516 325.016 219.831C325.324 224.146 322.61 226.971 320.212 227.838C317.814 228.706 296.994 234.884 293.57 234.332C290.146 233.781 288.418 230.49 291.211 227.177C294.004 223.863 302.137 221.662 302.137 221.662Z" fill="white"/>
<path d="M325.018 219.83C325.004 219.626 324.975 219.434 324.947 219.242C324.078 221.446 322.172 224.144 317.978 225.45C310.218 227.864 298.615 230.991 296.006 231.196C294.253 231.334 291.471 230.855 289.83 230.526C289.845 232.454 291.345 233.974 293.571 234.333C296.996 234.884 317.815 228.706 320.213 227.839C322.612 226.97 325.326 224.146 325.018 219.83Z" fill="#C7D8F2"/>
<path d="M279.297 330.006C279.297 330.006 277.739 331.839 280.373 334.463C283.007 337.087 284.044 334.754 288.95 336.765C293.856 338.775 295.452 338.985 297.54 338.164C299.627 337.344 300.652 335.912 300.688 334.62C300.723 333.327 299.098 331.585 299.098 331.585L279.297 330.006Z" fill="#94A3C0"/>
<path d="M296.548 325.472C296.548 325.472 298.484 329.312 299.802 332.292C300.309 333.694 298.923 336.165 296.141 336.788C293.358 337.411 291.578 336.994 290.298 336.057C289.018 335.12 282.414 334.423 281.08 333.757C279.745 333.091 278.731 330.286 279.015 329.44C279.299 328.593 280.77 326.912 282.909 327.233C285.049 327.553 287.023 328.687 290.914 327.892C294.806 327.098 296.548 325.472 296.548 325.472Z" fill="#382747"/>
<path d="M295.469 314.514C295.469 314.514 293.911 316.346 296.545 318.971C299.179 321.595 300.216 319.262 305.122 321.272C310.028 323.283 311.624 323.493 313.711 322.672C315.799 321.852 316.824 320.42 316.86 319.127C316.895 317.835 315.27 316.093 315.27 316.093L295.469 314.514Z" fill="#94A3C0"/>
<path d="M312.722 309.98C312.722 309.98 314.658 313.82 315.976 316.8C316.483 318.203 315.097 320.673 312.315 321.296C309.532 321.919 307.752 321.502 306.472 320.565C305.192 319.628 298.588 318.931 297.254 318.265C295.919 317.599 294.905 314.794 295.189 313.947C295.473 313.101 296.944 311.42 299.083 311.74C301.223 312.061 303.197 313.195 307.088 312.401C310.98 311.606 312.722 309.98 312.722 309.98Z" fill="#382747"/>
<path d="M288.914 280.916C291.939 288.31 301.193 307.365 303.726 314.209C303.726 314.209 306.01 316.329 310.621 314.399L312.636 312.84C313.448 312.212 313.742 311.124 313.354 310.174C311.828 306.435 308.114 296.986 307.054 291.07C305.711 283.563 302.591 279.616 302.591 279.616C302.105 277.181 300.183 268.805 294.797 267.865C294.797 267.865 282.498 268.878 288.914 280.916Z" fill="#616D7F"/>
<path d="M296.703 271.113L296.117 274.009C296.117 274.009 276.764 280.264 273.054 287.425C273.054 287.425 269.718 289.011 272.742 296.405C275.767 303.799 285.021 322.855 287.554 329.698C287.554 329.698 289.838 331.819 294.449 329.888L296.464 328.329C297.276 327.701 297.57 326.613 297.182 325.663C295.656 321.925 291.942 312.475 290.883 306.559C289.539 299.053 286.42 295.105 286.42 295.105C286.42 295.105 295.46 294.373 305.741 295.702C316.022 297.03 322.788 290.411 325.779 287.55C328.77 284.689 329.701 283.069 329.701 283.069C329.701 283.069 334.165 281.863 337.362 277.235C340.56 272.607 338.7 263.187 332.77 258.973C326.842 254.758 296.703 271.113 296.703 271.113Z" fill="#6D7B93"/>
<path d="M295.702 227.64C295.702 227.64 298.553 225.609 297.201 221.433C295.113 217.524 293.875 217.558 293.875 217.558C293.875 217.558 297.201 212.263 302.897 212.11C302.897 212.11 308.011 217.92 312.521 219.78C312.521 219.78 311.663 228.46 295.702 227.64Z" fill="#EA9273"/>
<path d="M305.106 220.651C305.106 220.651 293.789 228.156 291.832 234.844C289.875 241.532 292.236 247.736 297.2 255.976C302.163 264.215 299.215 273.565 301.783 278.004C304.351 282.442 314.485 284.494 326.956 278.729C339.427 272.965 339.005 267.604 339.187 264.476C339.368 261.347 332.155 248.584 332.329 236.562C332.502 224.539 324.057 218.61 320.989 217.386C317.921 216.162 312.13 214.99 305.106 220.651Z" fill="#58AFFB"/>
<path opacity="0.54" d="M320.988 217.384C317.92 216.16 312.129 214.988 305.105 220.649C305.105 220.649 293.789 228.155 291.832 234.842C291.358 236.463 291.142 238.055 291.151 239.655C294.418 231.748 300.787 226.944 308.456 236.851C315.613 246.098 312.842 279.708 300.589 272.688C300.726 274.806 300.993 276.638 301.782 278.002C304.35 282.441 314.485 284.493 326.956 278.728C339.427 272.963 339.005 267.603 339.186 264.475C339.367 261.346 332.155 248.582 332.328 236.56C332.501 224.538 324.056 218.609 320.988 217.384Z" fill="#2689FD"/>
<path d="M294.693 229.279C294.693 229.279 298.622 230.527 306.67 227.069C314.717 223.612 313.58 217.504 312.734 217.22C311.887 216.935 309.935 215.41 309.935 215.41C309.935 215.41 302.185 221.866 299.399 223.902C296.613 225.938 295.133 227.108 295.133 227.108L294.693 229.279Z" fill="white"/>
<path d="M347.341 317.502L342.656 316.242L328.168 322.844L332.852 324.102L347.341 317.502Z" fill="#00265A"/>
<path d="M332.853 324.101L328.168 322.842L325.761 325.261L330.445 326.52L332.853 324.101Z" fill="#002F71"/>
<path d="M319.48 345.477L314.796 344.219L315.264 345.932L319.948 347.192L319.48 345.477Z" fill="#002A65"/>
<path d="M330.444 326.522L325.759 325.262L314.796 344.219L319.481 345.478L330.444 326.522Z" fill="#00357F"/>
<path d="M330.443 326.519L319.48 345.475L319.948 347.189L331.464 330.258L333.873 327.84L347.808 319.213L347.34 317.499L332.851 324.1L330.443 326.519Z" fill="#001E46"/>
<path d="M309.633 327.689L313.046 324.242L328.887 322.648L325.474 326.095L309.633 327.689Z" fill="#00265A"/>
<path d="M325.475 326.095L328.888 322.648L332.186 323.525L328.773 326.972L325.475 326.095Z" fill="#002F71"/>
<path d="M347.792 337.828L351.205 334.381L351.663 336.097L348.251 339.545L347.792 337.828Z" fill="#002A65"/>
<path d="M328.774 326.971L332.186 323.523L351.205 334.38L347.792 337.826L328.774 326.971Z" fill="#00357F"/>
<path d="M328.774 326.973L347.792 337.829L348.251 339.546L329.775 330.718L326.476 329.842L310.093 329.406L309.635 327.69L325.476 326.096L328.774 326.973Z" fill="#001E46"/>
<path d="M309.633 327.689L313.046 324.242L328.887 322.648L325.474 326.095L309.633 327.689Z" fill="#00265A"/>
<path d="M325.475 326.095L328.888 322.648L332.186 323.525L328.773 326.972L325.475 326.095Z" fill="#002F71"/>
<path d="M347.792 337.828L351.205 334.381L351.663 336.097L348.251 339.545L347.792 337.828Z" fill="#002A65"/>
<path d="M328.774 326.971L332.186 323.523L351.205 334.38L347.792 337.826L328.774 326.971Z" fill="#00357F"/>
<path d="M328.774 326.973L347.792 337.829L348.251 339.546L329.775 330.718L326.476 329.842L310.093 329.406L309.635 327.69L325.476 326.096L328.774 326.973Z" fill="#001E46"/>
<path d="M327.185 306.787L331.741 323.843L329.227 326.382L324.671 309.325L327.185 306.787Z" fill="#0046A6"/>
<path d="M324.672 309.327L329.228 326.384L325.759 325.462L321.202 308.405L324.672 309.327Z" fill="#003783"/>
<path d="M327.186 306.788L324.672 309.326L321.203 308.404L323.716 305.866L327.186 306.788Z" fill="#4DA5DC"/>
<path d="M348.19 229.703C347.339 226.956 344.077 225.814 341.706 227.442C331.352 234.544 307.701 251.131 306.928 254.954C306.19 258.598 305.849 277.932 305.722 287.605C305.686 290.401 303.016 292.397 300.321 291.655L281.95 286.591C278.456 285.628 275.427 289.184 276.935 292.481L283.604 307.058C284.136 308.221 285.161 309.084 286.398 309.41L305.984 314.569C316.93 317.452 328.593 314.66 337.046 307.132L348.351 297.065C358.237 288.261 362.068 274.493 358.151 261.848L348.19 229.703Z" fill="#FFBE3D"/>
<path d="M282.552 246.949C282.552 246.949 292.698 234.8 295.092 234.117C297.974 233.346 301.806 233.662 303.528 237.631C305.25 241.6 303.627 245.165 301.652 246.779C299.677 248.393 282.086 261.129 278.673 261.744C275.26 262.359 272.539 259.829 274.074 255.776C275.609 251.724 282.552 246.949 282.552 246.949Z" fill="white"/>
<path d="M303.528 237.631C303.446 237.444 303.356 237.272 303.265 237.1C303.177 239.468 302.273 242.645 298.75 245.268C292.23 250.121 282.321 256.919 279.928 257.978C278.321 258.689 275.536 259.16 273.88 259.394C274.534 261.208 276.453 262.144 278.673 261.744C282.086 261.129 299.678 248.393 301.652 246.779C303.627 245.165 305.25 241.6 303.528 237.631Z" fill="#C7D8F2"/>
<path d="M250.2 260.447C250.2 260.447 246.972 260.701 245.638 260.34C244.305 259.979 242.327 258.762 241.751 258.918C241.175 259.073 239.602 260.117 239.166 260.028C238.73 259.94 238.932 259.164 239.194 258.991C239.456 258.817 241.421 258.08 241.107 258.062C240.793 258.043 238.836 259.191 238.514 258.762C238.193 258.334 239.797 255.119 242.042 253.894C244.287 252.669 244.93 253.525 246.212 253.694C247.494 253.863 250.85 255.223 250.85 255.223C250.85 255.223 251.721 259.212 250.2 260.447Z" fill="#FF9F75"/>
<path d="M281.319 257.351C281.319 257.351 280.094 262.504 273.67 262.699C267.247 262.894 251.122 260.908 249.495 260.903C249.495 260.903 246.856 257.908 248.697 254.209C248.697 254.209 258.878 253.708 263.727 252.988C268.576 252.266 283.429 248.614 281.319 257.351Z" fill="white"/>
<path d="M248.617 259.465C249.023 260.363 249.495 260.904 249.495 260.904C251.121 260.91 267.246 262.895 273.669 262.7C277.809 262.574 279.783 260.394 280.668 258.857C271.179 261.51 255.068 260.145 248.617 259.465Z" fill="#C7D8F2"/>
<path d="M283.786 198.276C283.786 198.276 281.71 200.76 282.156 203.936C282.602 207.113 285.1 208.223 284.723 210.387C284.346 212.549 284.515 214.701 285.511 216.355C286.508 218.009 288.452 222.155 289.916 222.996C291.379 223.837 295.678 221.44 298.986 219.447C302.294 217.454 304.733 213.773 305.253 210.609C305.772 207.447 306.215 201.969 304.05 198.021C301.884 194.073 296.632 191.92 293.617 192.46C290.603 193 286.925 194.131 283.786 198.276Z" fill="#FF9F75"/>
<path d="M282.073 199.565C282.073 199.565 279.879 202.631 282.187 205.579C283.36 206.361 286.266 206.949 287.647 208.5C289.027 210.05 287.345 212.977 289.657 214.414C291.968 215.85 293.84 216.168 295.009 218.462C296.178 220.757 299.403 219.473 303.411 217.017C304.868 215.799 305.224 212.543 305.224 212.543C305.224 212.543 306.681 206.241 306.26 202.646C305.838 199.051 304.526 197.757 303.502 198.034C302.478 198.311 299.059 202.943 295.29 202.725C291.523 202.508 283.983 198.5 282.073 199.565Z" fill="#93513F"/>
<path d="M282.073 199.564C282.073 199.564 281.371 196.457 284.112 193.381C286.852 190.305 295.043 189.603 297.368 190.074C299.181 190.683 297.842 191.32 297.842 191.32C297.842 191.32 300.842 191.746 302.862 193.123C304.883 194.5 306.571 198.715 306.135 201.169C305.699 203.622 300.411 206.424 297.166 206.614C293.92 206.804 283.142 205.046 282.073 199.564Z" fill="#A55D46"/>
<path d="M289.785 212.902C289.785 212.902 289.759 210.624 291.312 211.458C292.863 212.292 292.956 215.362 292.206 215.86C291.455 216.357 289.861 215.093 289.785 212.902Z" fill="#FF9F75"/>
<path d="M260.717 186.703C259.066 188.361 258.222 191.535 258.836 193.782L260.779 200.894C261.395 203.146 263.234 203.619 264.886 201.961L287.896 178.639L290.228 180.931L290.569 175.954L298.785 167.92C300.438 166.261 301.279 163.097 300.663 160.844L298.719 153.733C298.105 151.485 296.268 151.004 294.616 152.662L260.717 186.703Z" fill="#FF5668"/>
<path d="M215.98 242.173L250.861 251.547L268.758 233.574L233.878 224.2L215.98 242.173Z" fill="white"/>
<path d="M240.423 230.891L236.425 234.928L229.94 234.781C231.099 232.41 234.941 230.554 238.522 230.635C239.239 230.651 239.814 230.729 240.423 230.891Z" fill="#E2EDFF"/>
<path d="M241.609 230.952C245.294 231.931 246.117 234.911 243.447 237.607C240.777 240.303 235.625 241.695 231.941 240.716C228.992 239.932 227.815 237.95 228.935 235.656L236.775 235.834L241.609 230.952Z" fill="#16C5DC"/>
<path d="M279.709 230.511C280.387 230.692 280.538 231.239 280.047 231.734L265.537 246.376C265.046 246.871 264.101 247.127 263.423 246.947L249.537 243.257C248.86 243.078 248.708 242.53 249.199 242.035L263.709 227.393C264.2 226.897 265.146 226.641 265.823 226.821L279.709 230.511Z" fill="#F2F8FD"/>
<path d="M280.324 231.052C280.327 231.068 280.33 231.084 280.332 231.1C280.333 231.114 280.332 231.128 280.333 231.141C280.333 231.157 280.333 231.173 280.331 231.19C280.33 231.202 280.328 231.216 280.326 231.23C280.323 231.248 280.321 231.265 280.317 231.283C280.313 231.295 280.309 231.308 280.306 231.321C280.3 231.342 280.292 231.362 280.285 231.384C280.28 231.396 280.274 231.408 280.269 231.42C280.256 231.449 280.241 231.477 280.224 231.505C280.217 231.515 280.212 231.526 280.205 231.537C280.195 231.554 280.182 231.57 280.17 231.587C280.159 231.602 280.149 231.617 280.137 231.632C280.123 231.649 280.108 231.665 280.093 231.683C280.077 231.7 280.063 231.718 280.046 231.735L265.536 246.377C265.481 246.432 265.419 246.483 265.354 246.532C265.337 246.545 265.319 246.558 265.302 246.57C265.261 246.598 265.217 246.624 265.173 246.65C265.128 246.678 265.081 246.703 265.033 246.728C264.977 246.757 264.92 246.784 264.861 246.808C264.846 246.814 264.833 246.821 264.817 246.826C264.737 246.858 264.654 246.885 264.57 246.908C264.557 246.912 264.543 246.915 264.53 246.919C264.447 246.941 264.363 246.958 264.278 246.972C264.265 246.974 264.253 246.976 264.24 246.978C264.156 246.991 264.072 246.999 263.989 247.002C263.973 247.003 263.958 247.003 263.943 247.003C263.867 247.004 263.792 247.002 263.719 246.996C263.706 246.994 263.692 246.995 263.679 246.993C263.59 246.984 263.504 246.969 263.422 246.947L249.536 243.258C249.28 243.19 249.1 243.07 249 242.919C248.966 242.869 248.943 242.816 248.928 242.76L249.11 243.45C249.117 243.478 249.127 243.505 249.139 243.532C249.224 243.718 249.42 243.868 249.718 243.948L263.604 247.637C263.683 247.658 263.765 247.673 263.849 247.682C263.853 247.683 263.857 247.683 263.862 247.683C263.875 247.685 263.889 247.684 263.902 247.686C263.95 247.69 263.998 247.694 264.047 247.695C264.073 247.695 264.1 247.694 264.126 247.693C264.14 247.692 264.155 247.692 264.171 247.691C264.185 247.691 264.199 247.691 264.213 247.69C264.265 247.687 264.316 247.682 264.368 247.675C264.387 247.673 264.405 247.67 264.423 247.666C264.436 247.665 264.448 247.663 264.461 247.66C264.48 247.658 264.499 247.655 264.518 247.652C264.567 247.642 264.617 247.631 264.666 247.62C264.682 247.616 264.697 247.611 264.713 247.607C264.726 247.604 264.739 247.6 264.752 247.597C264.775 247.59 264.797 247.585 264.819 247.579C264.874 247.562 264.929 247.543 264.981 247.523C264.987 247.521 264.993 247.517 265 247.515C265.014 247.509 265.028 247.502 265.043 247.497C265.084 247.48 265.125 247.463 265.165 247.444C265.183 247.436 265.198 247.425 265.216 247.416C265.264 247.391 265.31 247.365 265.355 247.338C265.38 247.324 265.406 247.312 265.429 247.297C265.448 247.285 265.465 247.271 265.484 247.257C265.502 247.245 265.52 247.232 265.536 247.219C265.601 247.17 265.663 247.119 265.718 247.063L280.228 232.421C280.233 232.416 280.239 232.411 280.243 232.406C280.255 232.393 280.264 232.382 280.275 232.37C280.29 232.353 280.305 232.337 280.319 232.319C280.331 232.305 280.341 232.29 280.352 232.276C280.364 232.259 280.377 232.242 280.387 232.225C280.39 232.222 280.392 232.218 280.395 232.215C280.399 232.208 280.402 232.201 280.406 232.194C280.422 232.166 280.438 232.137 280.451 232.109C280.453 232.102 280.458 232.096 280.461 232.09C280.463 232.084 280.464 232.079 280.467 232.072C280.475 232.052 280.481 232.031 280.487 232.01C280.49 232.002 280.494 231.992 280.496 231.984C280.498 231.98 280.497 231.976 280.499 231.972C280.503 231.954 280.505 231.937 280.508 231.92C280.509 231.909 280.512 231.899 280.514 231.889C280.514 231.886 280.514 231.882 280.514 231.879C280.515 231.863 280.515 231.847 280.515 231.83C280.515 231.819 280.516 231.808 280.515 231.798C280.515 231.795 280.513 231.792 280.514 231.79C280.513 231.773 280.509 231.758 280.506 231.741C280.504 231.731 280.504 231.72 280.502 231.71C280.501 231.705 280.5 231.701 280.498 231.696L280.316 231.006C280.32 231.022 280.321 231.038 280.324 231.052Z" fill="#7BAEFF"/>
<path d="M277.993 231.207C278.21 231.264 278.258 231.441 278.1 231.601L264.33 245.507C264.173 245.666 263.868 245.748 263.651 245.691L251.142 242.368C250.924 242.31 250.876 242.134 251.033 241.974L264.803 228.068C264.961 227.909 265.265 227.826 265.484 227.884L277.993 231.207Z" fill="#7CCCFF"/>
<path d="M200.931 216.182L185.27 211.973L187.521 220.212L203.182 224.421L200.931 216.182Z" fill="#CE7C56"/>
<path d="M211.97 205.097L196.31 200.888L185.269 211.974L200.93 216.183L211.97 205.097Z" fill="#FFBE3D"/>
<path d="M200.929 216.185L203.18 224.424L214.22 213.338L211.969 205.099L200.929 216.185Z" fill="#E2A029"/>
<path d="M185.119 221.431L169.459 217.223L173.988 233.801L189.649 238.01L185.119 221.431Z" fill="#2670D4"/>
<path d="M196.159 210.343L180.498 206.134L169.459 217.221L185.119 221.429L196.159 210.343Z" fill="#58AFFB"/>
<path d="M185.119 221.431L189.649 238.01L200.689 226.924L196.159 210.345L185.119 221.431Z" fill="#2689FD"/>
<path d="M169.007 225.381L153.346 221.172L160.498 247.347L176.158 251.556L169.007 225.381Z" fill="#CC096A"/>
<path d="M180.046 214.296L164.385 210.087L153.345 221.173L169.006 225.382L180.046 214.296Z" fill="#FF5668"/>
<path d="M169.005 225.38L176.157 251.556L187.197 240.469L180.045 214.294L169.005 225.38Z" fill="#EE2C6A"/>
<path d="M217.502 250.267C217.502 250.279 217.502 250.29 217.501 250.302C217.494 250.403 217.47 250.507 217.435 250.611C217.429 250.63 217.423 250.649 217.415 250.668C217.375 250.773 217.321 250.88 217.252 250.986C217.207 251.057 217.144 251.127 217.085 251.197C217.037 251.255 216.999 251.313 216.941 251.371L194.18 274.357C194.032 274.506 193.858 274.64 193.674 274.765C193.609 274.809 193.541 274.851 193.472 274.891C193.384 274.944 193.295 274.995 193.201 275.042C193.091 275.098 192.98 275.151 192.864 275.198C192.836 275.21 192.698 274.811 192.67 274.822C192.513 274.882 192.241 274.525 192.077 274.57C192.051 274.577 192.025 274.584 191.999 274.591C191.838 274.634 191.785 275.08 191.62 275.106C191.596 275.11 191.627 275.32 191.602 275.323C191.438 275.348 191.303 275.465 191.141 275.472C191.111 275.474 191.096 275.525 191.066 275.526C190.917 275.529 190.778 275.549 190.634 275.538C190.609 275.535 190.586 275.548 190.561 275.546C190.388 275.527 190.221 275.505 190.061 275.462L169.952 270.122C169.289 269.945 168.885 269.59 168.769 269.154L169.606 272.288C169.722 272.723 170.128 273.081 170.79 273.257L190.9 278.601C191.053 278.641 191.212 278.671 191.377 278.689C191.386 278.69 191.394 278.69 191.402 278.691C191.427 278.694 190.936 278.833 190.962 278.835C191.056 278.843 190.725 278.966 190.732 278.992C191.512 278.795 191.351 278.85 191.402 278.849C191.432 278.849 191.718 278.779 191.748 278.777C191.775 278.777 191.932 278.742 191.959 278.74C192.059 278.734 192.224 278.708 192.325 278.696C192.36 278.691 192.427 278.675 192.463 278.671C192.488 278.667 192.739 278.602 192.764 278.598C192.8 278.592 193.101 278.517 193.102 278.52C193.104 278.527 192.854 278.522 192.949 278.496C192.979 278.488 193.009 278.48 193.039 278.472C193.065 278.465 193.09 278.458 193.117 278.451C193.16 278.439 193.214 278.465 193.256 278.452C193.363 278.419 193.473 278.402 193.577 278.362C193.589 278.357 193.604 278.361 193.616 278.356C193.644 278.345 193.672 278.337 193.7 278.325C193.78 278.292 193.861 278.263 193.939 278.226C193.973 278.21 194.004 278.19 194.037 278.172C194.131 278.125 194.221 278.074 194.309 278.021C194.356 277.994 194.408 277.971 194.453 277.942C194.474 277.928 194.49 277.91 194.51 277.895C194.695 277.77 194.869 277.637 195.017 277.487L217.778 254.501C217.788 254.491 217.798 254.481 217.808 254.471C217.853 254.424 217.882 254.375 217.922 254.327C217.98 254.256 218.043 254.187 218.089 254.116C218.093 254.109 218.1 254.103 218.104 254.096C218.156 254.015 218.199 253.933 218.233 253.852C218.241 253.834 218.245 253.816 218.252 253.798C218.259 253.779 218.265 253.76 218.272 253.741C218.282 253.709 218.297 253.677 218.304 253.646C218.32 253.583 218.331 253.52 218.337 253.459C218.338 253.449 218.337 253.441 218.337 253.432C218.338 253.42 218.338 253.409 218.338 253.398C218.339 253.359 218.138 253.375 218.135 253.338C218.131 253.279 217.92 253.277 217.904 253.221C217.902 253.212 217.9 253.204 217.898 253.195L217.265 250.007C217.293 250.109 217.506 250.16 217.502 250.267Z" fill="#16C5DC"/>
<path d="M216.289 248.984C217.61 249.334 217.899 250.402 216.942 251.369L194.182 274.354C193.225 275.321 191.386 275.817 190.065 275.467L169.955 270.123C168.639 269.773 168.34 268.708 169.297 267.742L192.058 244.756C193.015 243.79 194.863 243.291 196.178 243.64L216.289 248.984Z" fill="white"/>
<path d="M192.809 253.331L193.696 256.697L192.267 258.835L190.597 259.286L189.591 255.562L192.809 253.331Z" fill="#EE2C6A"/>
<path d="M193.606 256.359L194.875 261.114L192.205 263.811L190.902 258.933L193.606 256.359Z" fill="#BB4F23"/>
<path d="M189.319 255.875C189.102 255.851 188.855 255.833 188.629 255.829C188.444 255.827 188.257 255.832 188.07 255.842C187.897 255.852 187.722 255.869 187.548 255.89C187.38 255.91 187.213 255.937 187.044 255.968C186.876 255.999 186.709 256.034 186.542 256.075C186.37 256.118 186.198 256.165 186.029 256.217C185.843 256.273 185.661 256.336 185.481 256.404C185.271 256.485 185.065 256.572 184.865 256.667C184.553 256.814 184.256 256.979 183.977 257.16C183.617 257.395 183.29 257.657 183.007 257.942C182.99 257.96 182.973 257.977 182.956 257.995C182.751 258.208 182.582 258.423 182.447 258.638C182.359 258.778 182.285 258.918 182.225 259.057C182.174 259.177 182.134 259.295 182.104 259.412C182.077 259.521 182.057 259.628 182.048 259.734C182.038 259.837 182.036 259.939 182.043 260.039C182.049 260.14 182.064 260.239 182.088 260.337C182.091 260.352 182.095 260.366 182.099 260.381L183.435 265.381C183.431 265.366 183.427 265.351 183.424 265.336C183.4 265.24 183.386 265.14 183.379 265.039C183.372 264.939 183.373 264.837 183.384 264.734C183.394 264.628 183.413 264.52 183.441 264.412C183.471 264.295 183.511 264.177 183.562 264.057C183.621 263.918 183.695 263.778 183.783 263.638C183.919 263.423 184.088 263.207 184.292 262.995C184.309 262.977 184.326 262.96 184.344 262.942C184.626 262.656 184.954 262.395 185.314 262.16C185.592 261.979 185.89 261.814 186.201 261.666C186.401 261.571 186.608 261.484 186.818 261.404C186.998 261.335 187.181 261.273 187.365 261.216C187.535 261.164 187.706 261.117 187.879 261.075C188.045 261.034 188.213 260.999 188.381 260.967C188.548 260.936 188.717 260.911 188.885 260.89C189.06 260.868 189.233 260.852 189.406 260.842C189.594 260.831 189.781 260.827 189.966 260.829C190.191 260.832 190.414 260.846 190.632 260.871C190.915 260.902 191.198 260.957 191.461 261.026L190.139 256.027C189.876 255.957 189.602 255.907 189.319 255.875Z" fill="#CC096A"/>
<path d="M192.911 260.483L193.494 262.696C193.294 261.945 193.349 264.115 192.203 263.811L190.901 258.934C192.046 259.238 192.711 259.733 192.911 260.483Z" fill="#1E079D"/>
<mask id="mask0_378_5005" style="mask-type:luminance" maskUnits="userSpaceOnUse" x="190" y="258" width="4" height="6">
<path d="M192.911 260.483L193.494 262.696C193.294 261.945 193.349 264.115 192.203 263.811L190.901 258.934C192.046 259.238 192.711 259.733 192.911 260.483Z" fill="white"/>
</mask>
<g mask="url(#mask0_378_5005)">
<path d="M192.911 260.484L193.494 262.697C193.294 261.947 193.349 264.117 192.203 263.812L190.867 258.813C192.013 259.117 192.711 259.734 192.911 260.484Z" fill="#2670D4"/>
</g>
<path d="M197.432 259.365C197.476 259.549 197.504 259.737 197.517 259.929C197.53 260.118 197.526 260.311 197.508 260.506C197.489 260.707 197.453 260.911 197.4 261.116C197.344 261.338 197.267 261.562 197.171 261.788C197.058 262.052 196.919 262.316 196.752 262.582C196.496 262.99 196.175 263.398 195.787 263.801C195.756 263.835 195.719 263.872 195.686 263.906L196.272 266.114C196.306 266.081 196.338 266.048 196.37 266.014C196.757 265.61 197.079 265.203 197.335 264.795C197.502 264.529 197.641 264.264 197.754 264.001C197.85 263.775 197.927 263.55 197.983 263.328C198.036 263.123 198.072 262.919 198.091 262.718C198.109 262.523 198.112 262.33 198.099 262.141C198.087 261.949 198.059 261.761 198.014 261.578C198.007 261.55 198 261.521 197.993 261.493L197.41 259.28C197.419 259.309 197.425 259.337 197.432 259.365Z" fill="#2689FD"/>
<path d="M193.606 256.359C197.917 257.505 198.811 260.75 195.686 263.905L192.004 262.921C193.653 261.256 193.178 259.538 190.902 258.934L193.606 256.359Z" fill="#58AFFB"/>
<path d="M195.392 262.803L196.272 266.112L192.585 265.133L192.46 264.611L195.392 262.803Z" fill="#88630A"/>
<mask id="mask1_378_5005" style="mask-type:luminance" maskUnits="userSpaceOnUse" x="189" y="262" width="8" height="8">
<path d="M195.393 262.805L196.272 266.115C194.71 267.692 192.423 268.889 189.986 269.547L189.107 266.237C191.543 265.579 193.831 264.382 195.393 262.805Z" fill="white"/>
</mask>
<g mask="url(#mask1_378_5005)">
<path d="M193.517 264.311C193 264.645 192.448 264.95 191.871 265.223C191.491 265.404 191.1 265.569 190.702 265.721C190.363 265.85 190.017 265.968 189.668 266.075C189.482 266.132 189.295 266.186 189.107 266.237L189.986 269.547C190.174 269.496 190.361 269.442 190.547 269.385C190.896 269.277 191.24 269.159 191.58 269.031C191.979 268.88 192.37 268.713 192.75 268.533C193.327 268.26 193.879 267.955 194.396 267.621C195.093 267.17 195.727 266.666 196.273 266.115L195.393 262.805C194.848 263.356 194.214 263.86 193.517 264.311Z" fill="#E2A029"/>
</g>
<path d="M189.108 266.234L189.987 269.544L189.269 266.944L188.35 263.488L189.108 266.234Z" fill="#113C7A"/>
<path d="M195.393 262.802C193.831 264.38 191.543 265.576 189.107 266.234L188.389 263.634C189.674 263.287 190.882 262.655 191.707 261.822L195.393 262.802Z" fill="#FFBE3D"/>
<mask id="mask2_378_5005" style="mask-type:luminance" maskUnits="userSpaceOnUse" x="177" y="261" width="13" height="10">
<path d="M178.897 266.437L177.561 261.438C177.941 262.859 179.262 264.028 181.432 264.605C183.588 265.178 186.173 265.057 188.61 264.398L189.986 269.545C187.549 270.203 184.964 270.324 182.808 269.752C180.638 269.175 179.277 267.859 178.897 266.437Z" fill="white"/>
</mask>
<g mask="url(#mask2_378_5005)">
<path d="M188.196 264.505C187.881 264.582 187.563 264.65 187.246 264.708C186.929 264.766 186.611 264.815 186.293 264.854C185.965 264.895 185.636 264.926 185.31 264.945C184.953 264.967 184.598 264.975 184.247 264.97C183.822 264.964 183.404 264.939 182.995 264.894C182.456 264.834 181.933 264.738 181.432 264.605C179.262 264.028 177.941 262.859 177.561 261.438L178.897 266.437C179.277 267.859 180.638 269.175 182.808 269.752C183.308 269.885 183.831 269.98 184.37 270.041C184.78 270.086 185.198 270.112 185.622 270.117C185.973 270.122 186.328 270.113 186.685 270.092C187.011 270.072 187.34 270.042 187.669 270.001C187.986 269.962 188.304 269.913 188.622 269.854C188.939 269.796 189.256 269.728 189.572 269.652C189.711 269.617 189.85 269.582 189.987 269.545L188.611 264.399C188.472 264.436 188.334 264.472 188.196 264.505Z" fill="#CC096A"/>
</g>
<path d="M192.808 253.331L190.138 256.028C187.861 255.423 184.656 256.278 183.007 257.943C181.358 259.608 181.866 261.449 184.142 262.055C185.281 262.357 186.645 262.293 187.932 261.945L188.65 264.545C186.213 265.203 183.628 265.324 181.472 264.752C177.16 263.606 176.197 260.119 179.321 256.964C182.444 253.809 188.496 252.186 192.808 253.331Z" fill="#FF5668"/>
<path d="M211.212 252.131C211.518 252.213 211.584 252.455 211.363 252.678C211.142 252.902 210.722 253.016 210.417 252.934L194.861 248.8C194.555 248.719 194.488 248.476 194.709 248.253C194.93 248.029 195.35 247.916 195.656 247.997L211.212 252.131Z" fill="#D4D9DF"/>
<path d="M200.949 251.074C201.249 251.153 201.317 251.401 201.1 251.621C200.879 251.844 200.449 251.96 200.15 251.881L193.548 250.127C193.242 250.045 193.18 249.798 193.401 249.576C193.618 249.356 194.042 249.238 194.347 249.32L200.949 251.074Z" fill="#D4D9DF"/>
<path d="M203.451 253.301C203.757 253.382 203.829 253.625 203.608 253.849C203.387 254.073 202.961 254.185 202.655 254.103L192.325 251.359C192.019 251.277 191.953 251.035 192.174 250.812C192.395 250.588 192.815 250.475 193.12 250.556L203.451 253.301Z" fill="#D4D9DF"/>
<mask id="mask3_378_5005" style="mask-type:luminance" maskUnits="userSpaceOnUse" x="243" y="201" width="2" height="2">
<path d="M244.157 202.271L243.934 201.437C243.986 201.633 244.089 201.821 244.236 201.995L244.459 202.829C244.311 202.655 244.209 202.467 244.157 202.271Z" fill="white"/>
</mask>
<g mask="url(#mask3_378_5005)">
<path d="M244.236 201.995L244.459 202.829C244.311 202.656 244.209 202.467 244.157 202.271L243.934 201.437C243.987 201.633 244.089 201.821 244.236 201.995Z" fill="#003783"/>
</g>
<path d="M231.425 204.87C231.431 204.911 231.44 204.952 231.443 204.994C231.445 205.024 231.445 205.055 231.445 205.086C231.446 205.131 231.446 205.175 231.443 205.221C231.44 205.252 231.435 205.283 231.431 205.314C231.425 205.366 231.416 205.418 231.404 205.471C231.391 205.527 231.379 205.582 231.36 205.64L231.583 206.474C231.596 206.433 231.608 206.392 231.618 206.352C231.622 206.336 231.623 206.321 231.627 206.305C231.639 206.252 231.647 206.2 231.654 206.148C231.657 206.128 231.663 206.107 231.665 206.087C231.666 206.076 231.665 206.066 231.666 206.055C231.669 206.009 231.669 205.965 231.668 205.92C231.668 205.897 231.67 205.873 231.669 205.85C231.669 205.842 231.667 205.835 231.666 205.828C231.663 205.786 231.654 205.745 231.647 205.704C231.643 205.679 231.642 205.654 231.637 205.63C231.634 205.619 231.632 205.609 231.629 205.598L231.406 204.764C231.414 204.799 231.417 204.834 231.425 204.87Z" fill="#0046A6"/>
<path d="M251.563 200.338C251.571 200.379 251.579 200.42 251.582 200.463C251.584 200.49 251.585 200.517 251.585 200.544C251.585 200.579 251.586 200.616 251.583 200.652C251.582 200.68 251.578 200.709 251.574 200.737C251.569 200.773 251.563 200.808 251.555 200.845C251.55 200.872 251.542 200.9 251.534 200.928C251.522 200.968 251.509 201.008 251.493 201.048C251.483 201.074 251.473 201.1 251.461 201.126C251.434 201.185 251.403 201.244 251.368 201.302C251.359 201.317 251.352 201.333 251.343 201.348C251.325 201.375 251.305 201.401 251.285 201.428C251.261 201.462 251.238 201.496 251.211 201.53C251.189 201.557 251.163 201.584 251.14 201.611C251.107 201.649 251.075 201.687 251.038 201.724C250.956 201.807 250.867 201.885 250.771 201.961C250.74 201.986 250.704 202.009 250.671 202.033C250.604 202.083 250.536 202.132 250.464 202.179C250.442 202.193 250.418 202.206 250.395 202.22C250.315 202.269 250.232 202.315 250.146 202.36C250.114 202.377 250.082 202.393 250.05 202.409C249.983 202.443 249.913 202.473 249.843 202.504C249.779 202.532 249.716 202.56 249.65 202.586C249.573 202.616 249.495 202.644 249.416 202.671C249.367 202.687 249.318 202.705 249.269 202.721C249.163 202.755 249.056 202.785 248.947 202.812C248.921 202.819 248.897 202.827 248.872 202.833C248.736 202.866 248.599 202.895 248.46 202.92C248.415 202.928 248.37 202.933 248.325 202.94C248.213 202.958 248.1 202.976 247.986 202.989L248.209 203.823C248.242 203.819 248.274 203.815 248.307 203.811C248.389 203.801 248.468 203.787 248.549 203.774C248.594 203.767 248.638 203.762 248.682 203.754C248.69 203.753 248.699 203.752 248.707 203.75C248.834 203.726 248.959 203.7 249.083 203.67C249.087 203.669 249.091 203.668 249.095 203.667C249.12 203.661 249.145 203.652 249.17 203.646C249.263 203.622 249.356 203.598 249.448 203.57C249.463 203.565 249.478 203.56 249.492 203.555C249.542 203.539 249.591 203.522 249.639 203.505C249.697 203.485 249.755 203.467 249.812 203.445C249.833 203.437 249.853 203.428 249.874 203.419C249.94 203.392 250.003 203.365 250.067 203.336C250.111 203.317 250.158 203.3 250.201 203.28C250.226 203.268 250.249 203.254 250.274 203.242C250.306 203.226 250.339 203.21 250.371 203.193C250.457 203.148 250.539 203.101 250.62 203.052C250.643 203.039 250.667 203.025 250.69 203.011C250.699 203.005 250.708 203 250.718 202.994C250.781 202.953 250.838 202.909 250.897 202.865C250.93 202.84 250.965 202.817 250.998 202.792C251.093 202.716 251.182 202.637 251.264 202.555C251.273 202.546 251.283 202.537 251.292 202.527C251.318 202.499 251.341 202.471 251.365 202.443C251.39 202.416 251.416 202.389 251.437 202.36C251.464 202.327 251.487 202.294 251.511 202.26C251.53 202.233 251.551 202.205 251.569 202.178C251.571 202.175 251.574 202.172 251.575 202.169C251.583 202.158 251.587 202.146 251.593 202.134C251.629 202.075 251.66 202.016 251.686 201.957C251.691 201.948 251.698 201.938 251.702 201.927C251.709 201.911 251.712 201.896 251.719 201.88C251.734 201.84 251.748 201.799 251.759 201.76C251.764 201.745 251.771 201.731 251.774 201.716C251.778 201.703 251.779 201.689 251.782 201.676C251.789 201.64 251.796 201.604 251.8 201.569C251.802 201.551 251.808 201.534 251.809 201.517C251.81 201.506 251.809 201.495 251.809 201.484C251.812 201.447 251.811 201.412 251.81 201.375C251.81 201.357 251.813 201.338 251.811 201.319C251.811 201.311 251.808 201.303 251.808 201.294C251.804 201.253 251.797 201.212 251.789 201.17C251.786 201.152 251.785 201.134 251.781 201.116C251.778 201.106 251.776 201.096 251.774 201.085L251.551 200.251C251.555 200.281 251.558 200.31 251.563 200.338Z" fill="#2689FD"/>
<path d="M228.744 208.097C228.654 208.138 228.564 208.176 228.472 208.213C228.394 208.245 228.315 208.277 228.235 208.305C228.175 208.326 228.116 208.347 228.056 208.367C227.956 208.399 227.856 208.43 227.755 208.458C227.712 208.469 227.67 208.482 227.627 208.493C227.486 208.529 227.346 208.561 227.206 208.586C227.185 208.59 227.165 208.592 227.145 208.596C227.024 208.616 226.902 208.632 226.782 208.644C226.747 208.648 226.71 208.651 226.674 208.654C226.542 208.664 226.411 208.67 226.284 208.67C226.277 208.67 226.27 208.67 226.262 208.67C226.121 208.668 225.983 208.659 225.848 208.642C225.832 208.639 225.816 208.637 225.8 208.635C225.671 208.617 225.545 208.594 225.425 208.562C224.757 208.384 224.355 208.011 224.227 207.535L224.45 208.368C224.577 208.845 224.98 209.218 225.647 209.396C225.768 209.428 225.894 209.451 226.023 209.469C226.039 209.471 226.055 209.473 226.071 209.476C226.082 209.477 226.093 209.479 226.103 209.48C226.226 209.494 226.351 209.502 226.48 209.503C226.482 209.504 226.483 209.503 226.485 209.503C226.492 209.503 226.499 209.502 226.506 209.503C226.606 209.503 226.707 209.502 226.809 209.496C226.838 209.494 226.868 209.49 226.896 209.488C226.932 209.485 226.968 209.482 227.004 209.478C227.045 209.474 227.087 209.472 227.128 209.467C227.207 209.457 227.287 209.443 227.366 209.43C227.387 209.426 227.407 209.423 227.427 209.42C227.434 209.419 227.442 209.418 227.449 209.416C227.561 209.396 227.674 209.371 227.787 209.344C227.808 209.339 227.828 209.332 227.848 209.328C227.891 209.317 227.934 209.304 227.976 209.292C228.036 209.276 228.095 209.262 228.155 209.243C228.195 209.231 228.236 209.215 228.277 209.201C228.337 209.181 228.396 209.161 228.456 209.139C228.493 209.126 228.531 209.115 228.568 209.101C228.61 209.084 228.651 209.064 228.694 209.048C228.785 209.01 228.876 208.973 228.965 208.932C229.001 208.915 229.038 208.902 229.074 208.886C229.152 208.849 229.23 208.81 229.306 208.77L229.084 207.937C228.973 207.994 228.858 208.046 228.744 208.097Z" fill="#2689FD"/>
<path d="M255.325 204.942L255.548 205.776L250.226 211.15L250.004 210.317L255.325 204.942Z" fill="#2689FD"/>
<path d="M231.086 215.531L231.309 216.364L223.768 214.361L223.546 213.527L231.086 215.531Z" fill="#2689FD"/>
<path d="M254.518 211.057C254.522 211.084 254.528 211.11 254.53 211.138C254.533 211.188 254.53 211.241 254.529 211.294C254.527 211.322 254.53 211.351 254.527 211.38C254.524 211.411 254.515 211.445 254.51 211.478C254.501 211.532 254.495 211.586 254.481 211.641C254.461 211.717 254.437 211.795 254.407 211.873C254.402 211.888 254.397 211.902 254.391 211.917C254.358 211.998 254.321 212.08 254.276 212.163C254.269 212.174 254.262 212.187 254.255 212.199C254.214 212.274 254.168 212.349 254.117 212.426C254.108 212.438 254.1 212.451 254.092 212.463C254.036 212.544 253.974 212.625 253.908 212.706C253.896 212.72 253.884 212.734 253.873 212.748C253.8 212.834 253.723 212.921 253.637 213.007C253.56 213.085 253.481 213.159 253.398 213.232C253.372 213.256 253.344 213.279 253.317 213.301C253.258 213.35 253.2 213.399 253.14 213.446C253.107 213.472 253.074 213.497 253.041 213.521C252.982 213.566 252.923 213.608 252.862 213.65C252.828 213.674 252.794 213.697 252.76 213.72C252.715 213.75 252.668 213.78 252.621 213.809C252.547 213.855 252.471 213.901 252.395 213.945C252.35 213.97 252.305 213.996 252.259 214.021C252.18 214.063 252.101 214.103 252.022 214.142C251.98 214.163 251.938 214.184 251.896 214.204C251.751 214.271 251.603 214.334 251.454 214.392C251.416 214.407 251.376 214.42 251.337 214.434C251.25 214.465 251.163 214.496 251.075 214.524C251.022 214.541 250.969 214.556 250.916 214.571C250.851 214.59 250.786 214.608 250.721 214.624C250.663 214.639 250.606 214.652 250.547 214.665C250.493 214.678 250.438 214.69 250.382 214.701C250.321 214.713 250.26 214.723 250.2 214.734C250.149 214.741 250.1 214.75 250.05 214.756C249.989 214.765 249.928 214.771 249.867 214.777C249.818 214.782 249.769 214.787 249.719 214.79C249.664 214.794 249.609 214.796 249.555 214.797C249.498 214.799 249.442 214.801 249.386 214.801C249.342 214.8 249.299 214.799 249.255 214.796C249.179 214.794 249.103 214.79 249.03 214.782C248.972 214.777 248.914 214.77 248.858 214.762C248.83 214.758 248.802 214.755 248.774 214.75C248.684 214.734 248.596 214.717 248.51 214.694C247.843 214.517 247.441 214.143 247.314 213.666L247.536 214.5C247.664 214.977 248.066 215.351 248.732 215.528C248.818 215.55 248.907 215.568 248.997 215.584C249.024 215.589 249.053 215.592 249.081 215.596C249.117 215.601 249.152 215.609 249.189 215.613C249.21 215.615 249.231 215.615 249.253 215.616C249.327 215.623 249.402 215.628 249.478 215.63C249.506 215.631 249.534 215.635 249.563 215.636C249.578 215.636 249.594 215.635 249.61 215.635C249.665 215.635 249.722 215.633 249.778 215.631C249.818 215.629 249.856 215.631 249.896 215.628C249.912 215.627 249.927 215.625 249.944 215.624C249.993 215.62 250.042 215.615 250.092 215.61C250.133 215.606 250.174 215.604 250.215 215.599C250.235 215.597 250.254 215.593 250.274 215.59C250.324 215.583 250.374 215.575 250.424 215.567C250.462 215.561 250.499 215.557 250.537 215.55C250.56 215.545 250.584 215.54 250.607 215.535C250.661 215.525 250.716 215.512 250.772 215.5C250.807 215.492 250.842 215.486 250.877 215.477C250.9 215.472 250.923 215.464 250.946 215.459C251.01 215.442 251.075 215.424 251.14 215.405C251.175 215.395 251.21 215.387 251.244 215.376C251.262 215.371 251.28 215.363 251.299 215.357C251.387 215.329 251.474 215.299 251.562 215.267C251.593 215.256 251.625 215.247 251.656 215.235C251.663 215.232 251.671 215.228 251.679 215.226C251.828 215.169 251.975 215.106 252.121 215.037C252.133 215.031 252.147 215.027 252.16 215.021C252.189 215.007 252.217 214.99 252.247 214.976C252.327 214.937 252.406 214.897 252.483 214.854C252.529 214.829 252.574 214.805 252.619 214.778C252.696 214.734 252.771 214.689 252.846 214.642C252.873 214.625 252.903 214.609 252.929 214.591C252.948 214.58 252.966 214.566 252.984 214.554C253.019 214.531 253.052 214.507 253.086 214.484C253.146 214.442 253.206 214.399 253.265 214.355C253.298 214.33 253.331 214.305 253.363 214.28C253.424 214.233 253.482 214.184 253.54 214.135C253.567 214.112 253.595 214.089 253.622 214.066C253.704 213.993 253.785 213.918 253.861 213.841C253.878 213.823 253.895 213.806 253.912 213.788C253.978 213.719 254.039 213.65 254.097 213.581C254.109 213.567 254.12 213.554 254.131 213.54C254.198 213.458 254.26 213.378 254.315 213.297C254.324 213.285 254.332 213.272 254.34 213.259C254.359 213.232 254.378 213.204 254.395 213.177C254.426 213.129 254.453 213.081 254.479 213.033C254.486 213.021 254.493 213.009 254.5 212.996C254.536 212.928 254.569 212.86 254.598 212.793C254.604 212.779 254.609 212.765 254.614 212.751C254.62 212.736 254.626 212.722 254.631 212.707C254.659 212.632 254.684 212.558 254.703 212.484C254.704 212.481 254.704 212.478 254.704 212.475C254.719 212.419 254.725 212.365 254.734 212.311C254.739 212.281 254.747 212.249 254.75 212.219C254.751 212.217 254.75 212.215 254.75 212.213C254.753 212.183 254.75 212.155 254.752 212.126C254.753 212.077 254.757 212.027 254.754 211.979C254.754 211.976 254.753 211.973 254.752 211.97C254.75 211.942 254.743 211.917 254.74 211.89C254.735 211.846 254.731 211.802 254.721 211.76C254.718 211.749 254.716 211.739 254.713 211.728L254.491 210.894C254.504 210.948 254.511 211.003 254.518 211.057Z" fill="#2689FD"/>
<path d="M236.448 212.254C236.328 212.221 236.204 212.195 236.079 212.171C236.038 212.163 235.996 212.158 235.954 212.152C235.87 212.138 235.785 212.124 235.699 212.114C235.687 212.112 235.676 212.109 235.663 212.109C235.586 212.1 235.508 212.094 235.43 212.088C235.41 212.087 235.389 212.084 235.369 212.083C235.264 212.077 235.158 212.072 235.052 212.071C235.045 212.071 235.039 212.072 235.032 212.071C234.885 212.069 234.738 212.073 234.59 212.081C234.579 212.082 234.568 212.081 234.558 212.082C234.523 212.084 234.489 212.089 234.454 212.091C234.364 212.098 234.273 212.106 234.182 212.117C234.161 212.119 234.141 212.12 234.12 212.123C234.086 212.127 234.053 212.133 234.019 212.138C233.947 212.149 233.875 212.159 233.803 212.172C233.776 212.176 233.75 212.179 233.723 212.184C233.693 212.19 233.664 212.198 233.634 212.203C233.567 212.216 233.502 212.23 233.436 212.245C233.406 212.251 233.376 212.257 233.346 212.264C233.32 212.271 233.294 212.279 233.267 212.286C233.203 212.302 233.14 212.319 233.077 212.338C233.047 212.347 233.014 212.354 232.983 212.364C232.961 212.371 232.939 212.379 232.917 212.387C232.848 212.409 232.781 212.432 232.715 212.457C232.682 212.468 232.649 212.478 232.617 212.49C232.602 212.495 232.587 212.503 232.572 212.508C232.478 212.545 232.387 212.584 232.297 212.625C232.275 212.635 232.251 212.644 232.229 212.654C232.223 212.657 232.218 212.66 232.212 212.663C232.18 212.679 232.149 212.696 232.117 212.712C232.054 212.744 231.991 212.776 231.931 212.81C231.896 212.83 231.861 212.851 231.827 212.872C231.788 212.895 231.749 212.917 231.711 212.942C231.699 212.949 231.689 212.958 231.677 212.966C231.613 213.008 231.552 213.053 231.493 213.099C231.464 213.121 231.433 213.142 231.405 213.165C231.32 213.234 231.239 213.306 231.165 213.381C231.156 213.391 231.145 213.401 231.136 213.411C231.109 213.439 231.087 213.467 231.063 213.495C231.039 213.521 231.015 213.548 230.993 213.575C230.966 213.609 230.943 213.644 230.918 213.678C230.9 213.705 230.879 213.731 230.862 213.757C230.86 213.76 230.858 213.764 230.855 213.767C230.848 213.779 230.843 213.791 230.837 213.803C230.802 213.861 230.771 213.919 230.745 213.978C230.741 213.987 230.733 213.998 230.73 214.008C230.722 214.024 230.719 214.04 230.713 214.056C230.697 214.096 230.684 214.135 230.672 214.175C230.668 214.189 230.661 214.204 230.658 214.218C230.654 214.231 230.654 214.245 230.651 214.259C230.643 214.295 230.637 214.33 230.632 214.366C230.63 214.383 230.625 214.4 230.624 214.417C230.622 214.428 230.624 214.439 230.623 214.451C230.62 214.488 230.621 214.523 230.621 214.559C230.621 214.577 230.62 214.596 230.62 214.614C230.621 214.623 230.623 214.631 230.624 214.64C230.628 214.681 230.635 214.723 230.642 214.764C230.646 214.781 230.646 214.8 230.65 214.818C230.653 214.828 230.655 214.839 230.658 214.849L230.881 215.683C230.873 215.655 230.87 215.627 230.864 215.598C230.857 215.557 230.849 215.516 230.846 215.474C230.844 215.447 230.843 215.42 230.843 215.393C230.843 215.358 230.842 215.322 230.845 215.285C230.847 215.257 230.85 215.229 230.854 215.2C230.859 215.165 230.865 215.129 230.873 215.094C230.879 215.066 230.887 215.038 230.895 215.011C230.906 214.971 230.92 214.931 230.935 214.892C230.945 214.866 230.955 214.84 230.967 214.814C230.993 214.757 231.024 214.698 231.059 214.64C231.068 214.624 231.076 214.609 231.085 214.594C231.102 214.567 231.123 214.541 231.141 214.514C231.165 214.48 231.188 214.446 231.215 214.413C231.237 214.386 231.262 214.359 231.286 214.332C231.32 214.294 231.351 214.256 231.388 214.218C231.462 214.143 231.543 214.071 231.628 214.002C231.656 213.98 231.687 213.958 231.716 213.936C231.775 213.891 231.836 213.846 231.9 213.803C231.948 213.771 231.998 213.74 232.05 213.709C232.084 213.688 232.118 213.667 232.154 213.647C232.214 213.613 232.277 213.581 232.34 213.549C232.371 213.533 232.402 213.516 232.435 213.5C232.463 213.487 232.492 213.476 232.52 213.462C232.61 213.421 232.701 213.382 232.794 213.346C232.841 213.327 232.889 213.31 232.937 213.293C233.004 213.269 233.07 213.245 233.139 213.224C233.191 213.207 233.245 213.191 233.299 213.175C233.362 213.157 233.426 213.14 233.489 213.123C233.545 213.109 233.602 213.095 233.657 213.083C233.722 213.068 233.789 213.054 233.855 213.041C233.911 213.03 233.968 213.02 234.025 213.009C234.096 212.997 234.168 212.986 234.241 212.976C234.296 212.968 234.35 212.96 234.405 212.955C234.496 212.944 234.586 212.937 234.678 212.929C234.722 212.926 234.768 212.922 234.812 212.919C234.96 212.911 235.108 212.907 235.255 212.908C235.367 212.91 235.479 212.914 235.591 212.92C235.611 212.921 235.632 212.924 235.652 212.925C235.742 212.932 235.832 212.94 235.92 212.951C236.006 212.961 236.091 212.975 236.175 212.988C236.217 212.995 236.259 213.001 236.301 213.008C236.425 213.032 236.549 213.058 236.669 213.091C237.697 213.364 238.333 213.892 238.495 214.501L238.272 213.667C238.111 213.056 237.476 212.527 236.448 212.254Z" fill="#2689FD"/>
<path d="M247.296 213.052L247.518 213.885L242.197 219.26L241.974 218.426L247.296 213.052Z" fill="#2689FD"/>
<path d="M249.721 198.848C251.544 199.332 252.133 200.62 251.038 201.726C250.362 202.408 249.202 202.859 247.986 202.992L255.323 204.942L250.002 210.316C251.121 209.816 252.357 209.62 253.291 209.868C254.803 210.269 254.957 211.676 253.637 213.008C252.316 214.342 250.022 215.098 248.51 214.695C247.576 214.447 247.162 213.813 247.294 213.05L241.972 218.424L234.434 216.422C235.749 216.331 237.037 215.864 237.763 215.13C238.858 214.025 238.27 212.736 236.447 212.252C234.626 211.768 232.261 212.271 231.167 213.377C230.44 214.111 230.459 214.925 231.085 215.532L223.545 213.528L229.084 207.936C227.875 208.565 226.463 208.838 225.424 208.561C223.913 208.16 223.76 206.754 225.08 205.421C226.4 204.088 228.694 203.333 230.205 203.734C231.244 204.01 231.642 204.763 231.358 205.638L236.896 200.045L244.236 201.995C243.734 201.405 243.765 200.654 244.44 199.972C245.536 198.866 247.9 198.363 249.721 198.848Z" fill="#58AFFB"/>
<path d="M241.973 218.425L242.196 219.259L234.657 217.255L234.434 216.421L241.973 218.425Z" fill="#2689FD"/>
</g>
<defs>
<filter id="filter0_d_378_5005" x="0.769177" y="0.279297" width="511.736" height="443.395" filterUnits="userSpaceOnUse" color-interpolation-filters="sRGB">
<feFlood flood-opacity="0" result="BackgroundImageFix"/>
<feColorMatrix in="SourceAlpha" type="matrix" values="0 0 0 0 0 0 0 0 0 0 0 0 0 0 0 0 0 0 127 0" result="hardAlpha"/>
<feOffset dy="4.11266"/>
<feGaussianBlur stdDeviation="2.05633"/>
<feComposite in2="hardAlpha" operator="out"/>
<feColorMatrix type="matrix" values="0 0 0 0 0 0 0 0 0 0 0 0 0 0 0 0 0 0 0.25 0"/>
<feBlend mode="normal" in2="BackgroundImageFix" result="effect1_dropShadow_378_5005"/>
<feBlend mode="normal" in="SourceGraphic" in2="effect1_dropShadow_378_5005" result="shape"/>
</filter>
<clipPath id="clip0_378_5005">
<rect width="392" height="326" fill="white" transform="translate(24.4238 111.762) rotate(-15.1196)"/>
</clipPath>
</defs>
</svg>
