<svg width="463" height="372" viewBox="0 0 463 372" fill="none" xmlns="http://www.w3.org/2000/svg">
<g filter="url(#filter0_d_35_30081)">
<rect x="7.71094" y="28.2422" width="429" height="332" rx="10.2816" transform="rotate(-3.33065 7.71094 28.2422)" fill="#121364"/>
<rect x="5.75412" y="26.5006" width="432.705" height="335.705" rx="12.134" transform="rotate(-3.33065 5.75412 26.5006)" stroke="white" stroke-width="3.70465"/>
</g>
<path d="M90.5076 314.915L168.403 310.382L152.055 266.987L100.548 269.985L90.5076 314.915Z" fill="white"/>
<path d="M118.376 278.014L114.951 281.913L114.907 282.022L104.326 308.026C103.985 308.858 104.384 309.81 105.217 310.151C106.05 310.492 107.001 310.093 107.342 309.26L117.968 283.149L117.968 283.148L118.263 279.434L118.376 278.014Z" fill="#BDBDBD"/>
<path d="M104.676 309.341C105.509 309.682 106.46 309.283 106.801 308.45L117.427 282.338L117.835 277.203L114.411 281.103L103.785 307.215C103.444 308.048 103.843 309 104.676 309.341Z" fill="#DCA427"/>
<path d="M117.428 282.336L117.383 282.444L114.367 281.21L114.411 281.101L117.836 277.201L117.428 282.336Z" fill="white"/>
<path d="M117.835 277.201L117.639 279.675L116.185 279.08L117.835 277.201Z" fill="black"/>
<path d="M114.366 281.21C114.366 281.21 115.697 280.681 117.383 282.445L114.585 284.702L114.366 281.21Z" fill="#DCA427"/>
<path d="M116.185 279.081C116.185 279.081 117.079 278.832 117.638 279.676L116.362 280.782L116.185 279.081Z" fill="white"/>
<path d="M105.421 309.408C106.27 309.359 106.918 308.631 106.868 307.782C106.819 306.933 106.091 306.285 105.242 306.334C104.393 306.384 103.745 307.112 103.795 307.961C103.844 308.81 104.572 309.458 105.421 309.408Z" fill="white"/>
<path d="M105.362 308.41C105.66 308.393 105.887 308.138 105.869 307.841C105.852 307.544 105.597 307.317 105.3 307.334C105.003 307.351 104.776 307.606 104.793 307.903C104.81 308.2 105.065 308.427 105.362 308.41Z" fill="black"/>
<path d="M139.577 130.758C157.011 126.888 168.007 109.618 164.138 92.1834C160.268 74.7491 142.998 63.7527 125.564 67.6224C108.129 71.492 97.133 88.7622 101.003 106.196C104.872 123.631 122.142 134.627 139.577 130.758Z" fill="white"/>
<path d="M131.459 91.9892L128.813 89.6337L128.301 90.2089L115.701 78.9951C114.147 77.6116 111.756 77.7507 110.373 79.3052C108.989 80.8596 109.129 83.25 110.683 84.6335L123.283 95.8473L122.771 96.4224L125.417 98.7779L127.251 96.7179L145.674 112.501L145.671 112.504L147.353 115.612L151.023 116.752L151.551 116.158L151.727 115.96L152.255 115.367L150.697 111.855L147.506 110.581L129.625 94.05L131.459 91.9892Z" fill="#537EB1"/>
<path d="M153.984 82.4369L148.666 88.4124L143.55 83.8594L148.868 77.884C146.124 77.1361 143.074 77.9055 141.055 80.1749C138.668 82.8566 138.516 86.7232 140.411 89.58L124.526 107.429C121.469 105.878 117.646 106.475 115.26 109.157C113.24 111.427 112.83 114.545 113.891 117.184L119.209 111.209L124.324 115.762L119.006 121.737C121.751 122.484 124.801 121.716 126.82 119.446C129.206 116.765 129.358 112.898 127.463 110.041L143.348 92.1925C146.406 93.7436 150.228 93.1457 152.614 90.464C154.634 88.1946 155.044 85.0763 153.984 82.4369Z" fill="#E1721B"/>
<path d="M144.003 206.898C161.437 203.029 172.433 185.758 168.564 168.324C164.694 150.89 147.424 139.893 129.989 143.763C112.555 147.633 101.559 164.903 105.428 182.337C109.298 199.771 126.568 210.768 144.003 206.898Z" fill="white"/>
<path d="M145.754 166.978L145.457 161.859L141.062 161.914C140.628 160.621 139.996 159.424 139.187 158.37L141.816 155.129L137.986 151.72L134.919 154.864C133.733 154.274 132.443 153.869 131.085 153.69L130.653 149.535L125.534 149.833L125.589 154.227C124.296 154.662 123.099 155.293 122.044 156.102L118.804 153.473L115.395 157.304L118.539 160.37C117.948 161.557 117.543 162.846 117.365 164.204L113.21 164.637L113.507 169.755L117.902 169.701C118.336 170.993 118.968 172.191 119.777 173.245L117.148 176.486L120.978 179.895L124.045 176.751C125.231 177.342 126.521 177.746 127.879 177.925L128.311 182.08L133.43 181.782L133.375 177.387C134.668 176.953 135.865 176.322 136.92 175.513L140.16 178.141L143.569 174.311L140.425 171.245C141.016 170.058 141.421 168.769 141.599 167.411L145.754 166.978ZM129.914 173.218C125.822 173.456 122.311 170.331 122.073 166.239C121.835 162.147 124.96 158.637 129.052 158.399C133.144 158.16 136.654 161.285 136.892 165.377C137.13 169.469 134.006 172.979 129.914 173.218Z" fill="#537EB1"/>
<path d="M160.755 188.663L160.524 184.688L157.111 184.731C156.774 183.726 156.284 182.797 155.654 181.978L157.696 179.462L154.721 176.815L152.34 179.256C151.419 178.798 150.418 178.483 149.363 178.345L149.027 175.118L145.052 175.35L145.095 178.763C144.09 179.1 143.161 179.59 142.342 180.219L139.826 178.177L137.179 181.152L139.62 183.533C139.162 184.454 138.847 185.455 138.709 186.51L135.482 186.846L135.713 190.82L139.127 190.778C139.463 191.782 139.954 192.712 140.583 193.531L138.541 196.046L141.516 198.694L143.897 196.252C144.818 196.71 145.819 197.025 146.874 197.163L147.21 200.39L151.185 200.159L151.142 196.746C152.147 196.409 153.076 195.919 153.895 195.289L156.411 197.331L159.059 194.357L156.617 191.975C157.075 191.054 157.39 190.053 157.528 188.999L160.755 188.663ZM148.454 193.508C145.276 193.693 142.55 191.267 142.365 188.09C142.181 184.912 144.607 182.186 147.784 182.001C150.962 181.816 153.688 184.242 153.872 187.42C154.058 190.598 151.632 193.323 148.454 193.508Z" fill="#E1721B"/>
<path d="M344.347 118.859C361.794 115.046 372.846 97.8119 369.033 80.3653C365.22 62.9188 347.986 51.8667 330.539 55.6798C313.092 59.4929 302.04 76.7272 305.853 94.1737C309.666 111.62 326.901 122.672 344.347 118.859Z" fill="white"/>
<path d="M326.547 74.6651L316.496 75.25L317.126 86.0736L327.176 85.4887L326.547 74.6651Z" fill="#537EB1"/>
<path d="M327.582 92.4463L317.531 93.0312L318.161 103.855L328.212 103.27L327.582 92.4463Z" fill="#537EB1"/>
<path d="M318.881 76.9595L322.955 82.6746L332.693 71.7341L323.067 78.7568L318.881 76.9595Z" fill="#E1721B"/>
<path d="M318.932 92.4321L323.006 98.1472L332.743 87.2067L323.118 94.2295L318.932 92.4321Z" fill="#E1721B"/>
<path d="M330.477 79.9961L361.659 78.1814" stroke="#537EB1" stroke-width="0.774422" stroke-miterlimit="10"/>
<path d="M330.688 83.6035L361.87 81.7888" stroke="#537EB1" stroke-width="0.774422" stroke-miterlimit="10"/>
<path d="M331.332 94.6855L362.514 92.8709" stroke="#537EB1" stroke-width="0.774422" stroke-miterlimit="10"/>
<path d="M331.57 98.8086L362.752 96.9939" stroke="#537EB1" stroke-width="0.774422" stroke-miterlimit="10"/>
<path d="M167.098 276.688L186.472 306.557L306.788 299.555L319.371 267.826L167.098 276.688Z" fill="#9AD2BE"/>
<path d="M185.08 179.601L156.292 264.768L182.965 263.216L194.513 231.708L185.08 179.601Z" fill="#73A65B"/>
<path d="M291.797 174.568L330.271 255.82L303.597 257.372L288.472 227.416L291.797 174.568Z" fill="#73A65B"/>
<path d="M152.094 257.873L152.547 265.216C152.74 268.334 154.614 271.101 157.437 272.436L161.324 274.274C163.351 275.233 165.715 275.159 167.68 274.078L171.26 272.105L174.897 272.805C176.508 273.115 178.176 272.888 179.646 272.159L188.6 267.715L197.552 266.95C198.706 266.852 199.633 265.956 199.773 264.806C199.931 263.493 199.017 262.292 197.71 262.094L189.375 260.832L184.199 260.482L182.608 247.711L177.136 247.985L176.778 252.776L158.381 258.193L157.117 256.832L152.094 257.873Z" fill="#DDB58E"/>
<path d="M181.485 246.169L176.769 246.416C175.76 246.468 174.974 247.309 174.989 248.319L175.187 261.452C175.221 263.704 177.142 265.463 179.387 265.3C181.386 265.154 182.952 263.525 183.017 261.523L183.458 248.107C183.495 247.007 182.583 246.112 181.485 246.169Z" fill="#F2D2A9"/>
<path d="M172.775 244.451L168.08 244.954C167.076 245.062 166.337 245.945 166.407 246.952L167.323 260.055C167.48 262.301 169.495 263.953 171.728 263.666C173.715 263.412 175.189 261.698 175.146 259.696L174.852 246.276C174.829 245.177 173.869 244.333 172.775 244.451Z" fill="#F2D2A9"/>
<path d="M164.324 248.495L159.685 249.379C158.693 249.568 158.029 250.508 158.181 251.506L160.16 264.491C160.499 266.717 162.641 268.2 164.844 267.732C166.804 267.317 168.134 265.49 167.927 263.497L166.543 250.145C166.429 249.051 165.404 248.289 164.324 248.495Z" fill="#F2D2A9"/>
<path d="M156.957 255.601L153.274 256.244C152.486 256.382 151.966 257.102 152.095 257.873L153.779 267.907C154.068 269.627 155.784 270.788 157.532 270.447C159.088 270.143 160.131 268.744 159.95 267.205L158.736 256.894C158.637 256.048 157.815 255.451 156.957 255.601Z" fill="#F2D2A9"/>
<path d="M157.532 270.447C159.087 270.143 160.131 268.744 159.95 267.205L159.399 262.528L153.084 263.771L153.778 267.907C154.067 269.626 155.783 270.788 157.532 270.447Z" fill="#F0C694"/>
<path d="M160.159 264.49C160.498 266.716 162.64 268.199 164.843 267.732C166.803 267.317 168.134 265.489 167.927 263.496L167.354 257.969L159.397 259.491L160.159 264.49Z" fill="#F0C694"/>
<path d="M175.026 254.22L166.964 254.917L167.324 260.053C167.481 262.3 169.495 263.951 171.728 263.664C173.716 263.41 175.19 261.697 175.146 259.694L175.026 254.22Z" fill="#F0C694"/>
<path d="M160.159 264.49C160.498 266.716 162.64 268.199 164.843 267.732C166.803 267.317 168.134 265.489 167.927 263.496L167.354 257.969L159.397 259.491L160.159 264.49Z" fill="#F0C694"/>
<path d="M175.072 253.828L175.187 261.453C175.221 263.705 177.141 265.464 179.387 265.301C181.385 265.155 182.951 263.526 183.017 261.524L183.275 253.671L175.072 253.828Z" fill="#F0C694"/>
<path d="M332.732 247.359L333.134 254.705C333.305 257.825 331.765 260.79 329.115 262.444L325.468 264.72C323.565 265.908 321.209 266.109 319.131 265.263L315.347 263.719L311.816 264.836C310.252 265.33 308.568 265.299 307.024 264.745L297.616 261.369L288.636 261.648C287.477 261.685 286.453 260.903 286.181 259.776C285.871 258.491 286.64 257.192 287.915 256.844L296.047 254.623L301.148 253.675L301.247 240.805L306.714 240.443L307.625 245.16L326.526 248.406L327.623 246.908L332.732 247.359Z" fill="#DDB58E"/>
<path d="M302.185 239.146L306.897 238.844C307.905 238.779 308.783 239.523 308.886 240.528L310.213 253.595C310.44 255.836 308.736 257.806 306.487 257.904C304.485 257.991 302.741 256.554 302.443 254.573L300.449 241.3C300.285 240.212 301.087 239.217 302.185 239.146Z" fill="#F2D2A9"/>
<path d="M310.633 236.427L315.355 236.383C316.365 236.373 317.201 237.164 317.249 238.173L317.858 251.293C317.963 253.543 316.154 255.417 313.903 255.391C311.899 255.369 310.236 253.838 310.047 251.844L308.782 238.481C308.678 237.386 309.534 236.437 310.633 236.427Z" fill="#F2D2A9"/>
<path d="M319.499 239.465L324.21 239.805C325.217 239.878 325.986 240.734 325.951 241.743L325.491 254.87C325.413 257.12 323.457 258.841 321.215 258.633C319.22 258.448 317.687 256.787 317.661 254.783L317.487 241.362C317.472 240.262 318.402 239.385 319.499 239.465Z" fill="#F2D2A9"/>
<path d="M327.64 245.668L331.373 245.88C332.171 245.925 332.772 246.58 332.733 247.361L332.224 257.522C332.137 259.264 330.567 260.617 328.791 260.481C327.21 260.359 326.012 259.091 326.013 257.542L326.023 247.159C326.023 246.308 326.771 245.619 327.64 245.668Z" fill="#F2D2A9"/>
<path d="M328.794 260.48C327.214 260.359 326.015 259.09 326.017 257.541L326.021 252.831L332.437 253.333L332.227 257.522C332.14 259.263 330.571 260.616 328.794 260.48Z" fill="#F0C694"/>
<path d="M325.489 254.868C325.41 257.119 323.455 258.84 321.213 258.631C319.218 258.446 317.684 256.785 317.659 254.782L317.587 249.225L325.666 249.814L325.489 254.868Z" fill="#F0C694"/>
<path d="M309.531 246.393L317.62 246.15L317.859 251.293C317.964 253.543 316.154 255.417 313.903 255.391C311.9 255.369 310.237 253.838 310.048 251.844L309.531 246.393Z" fill="#F0C694"/>
<path d="M325.489 254.868C325.41 257.119 323.455 258.84 321.213 258.631C319.218 258.446 317.684 256.785 317.659 254.782L317.587 249.225L325.666 249.814L325.489 254.868Z" fill="#F0C694"/>
<path d="M309.443 246.008L310.213 253.595C310.441 255.835 308.737 257.805 306.488 257.904C304.486 257.991 302.741 256.554 302.444 254.573L301.276 246.804L309.443 246.008Z" fill="#F0C694"/>
<path d="M250.528 159.503L238.189 157.421L238.166 157.023L237.307 157.272L236.426 157.124L236.449 157.522L224.367 159.862L185.08 179.602L190.175 267.16L242.652 264.107L244.392 264.005L296.869 260.951L291.841 174.553L250.528 159.503Z" fill="#9EE487"/>
<path d="M250.731 162.981L238.392 160.899L238.369 160.501L237.51 160.75L236.629 160.602L236.652 161L224.571 163.34L185.283 183.081L190.378 270.639L242.855 267.585L244.595 267.484L297.072 264.43L292.044 178.031L250.731 162.981Z" fill="#98DB74"/>
<path d="M239.887 216.557L237.742 179.704L241.324 176.328L243.434 212.572C243.555 214.652 241.967 216.436 239.887 216.557Z" fill="#A5E691"/>
<path d="M233.318 58.9716L227.315 59.3209C211.64 60.2332 199.673 73.6796 200.585 89.3537L202.122 115.753L264.887 112.1L263.351 85.701C262.439 70.0268 248.993 58.0594 233.318 58.9716Z" fill="#692D13"/>
<path d="M213.986 125.802L208.104 126.144C205.135 126.317 202.587 124.05 202.415 121.081L201.676 108.385L213.399 115.728L213.986 125.802Z" fill="#D1A57F"/>
<path d="M254.274 123.457L260.156 123.115C263.125 122.942 265.392 120.395 265.22 117.426L264.481 104.73L253.688 113.383L254.274 123.457Z" fill="#D1A57F"/>
<path d="M255.751 148.142L215.566 150.48L216.511 166.717L256.696 164.378L255.751 148.142Z" fill="#A1631A"/>
<path d="M250.217 160.682L237.745 179.704L221.91 162.33L220.543 138.846L248.851 137.198L250.217 160.682Z" fill="#DDB58E"/>
<path d="M237.743 179.705L215.565 150.481L211.796 165.373L226.958 186.9L229.057 175.796L237.743 179.705Z" fill="#DF631A"/>
<path d="M261.087 162.505L255.757 148.142L237.746 179.704L245.661 174.83L248.95 185.62L261.087 162.505Z" fill="#DF631A"/>
<path d="M238.382 153.274L233.272 153.572C221.531 154.255 211.46 145.292 210.777 133.551L207.977 85.4336L231.248 88.1875L255.602 82.662L258.402 130.78C259.085 142.52 250.122 152.591 238.382 153.274Z" fill="#EEC189"/>
<path d="M237.988 150.277L233.322 150.548C222.6 151.172 213.404 142.986 212.78 132.266L210.223 88.3242L231.138 91.2161L253.714 85.7932L256.271 129.735C256.895 140.455 248.709 149.653 237.988 150.277Z" fill="#F2D2A9"/>
<path d="M225.199 112.367C226.181 112.31 226.93 111.468 226.873 110.487C226.816 109.505 225.974 108.755 224.992 108.813C224.011 108.87 223.261 109.712 223.318 110.693C223.375 111.675 224.217 112.424 225.199 112.367Z" fill="black"/>
<path d="M241.09 111.442C242.071 111.384 242.821 110.542 242.764 109.561C242.707 108.579 241.864 107.83 240.883 107.887C239.901 107.944 239.152 108.786 239.209 109.768C239.266 110.749 240.108 111.499 241.09 111.442Z" fill="black"/>
<path d="M234.395 128.777C232.431 128.891 230.747 127.392 230.633 125.429L229.668 108.838L232.332 104.12C232.544 103.745 233.068 103.705 233.334 104.044L236.778 108.425L237.743 125.016C237.857 126.978 236.358 128.662 234.395 128.777Z" fill="#EBB17F"/>
<path d="M234.23 125.954C233.149 126.017 232.191 124.656 232.09 122.914L231.233 108.198L232.611 104.07C232.72 103.742 233.008 103.717 233.162 104.021L235.147 107.97L236.003 122.686C236.105 124.429 235.311 125.891 234.23 125.954Z" fill="#EFC29A"/>
<path d="M228.694 101.679C228.694 101.679 225.089 99.0627 220.836 101.506C216.582 103.951 217.933 108.832 217.933 108.832C217.933 108.832 221.694 104.407 223.866 103.967C226.038 103.528 229.431 104.65 229.653 103.067C229.876 101.485 228.694 101.679 228.694 101.679Z" fill="black"/>
<path d="M235.998 101.254C235.998 101.254 239.275 98.2377 243.783 100.171C248.292 102.106 247.516 107.111 247.516 107.111C247.516 107.111 243.267 103.152 241.058 102.967C238.85 102.783 235.611 104.291 235.206 102.744C234.802 101.199 235.998 101.254 235.998 101.254Z" fill="black"/>
<path d="M260.731 102.864C260.825 102.856 260.916 102.839 261.011 102.833C266.745 102.5 271.655 106.7 271.976 112.216C272.297 117.731 267.909 122.474 262.174 122.807C262.078 122.813 261.987 122.807 261.892 122.81L260.731 102.864Z" fill="#DF631A"/>
<path d="M262.654 124.676L264.859 124.547C266.226 124.468 267.269 123.295 267.19 121.928L266.095 103.125C266.016 101.758 264.843 100.715 263.477 100.794L261.272 100.922C259.905 101.002 258.861 102.174 258.941 103.541L260.035 122.345C260.115 123.712 261.287 124.755 262.654 124.676Z" fill="#363636"/>
<path d="M262.865 103.584L261.929 87.4928C260.922 70.1998 246.919 56.9484 230.651 57.8951L228.925 57.9955L228.401 58.026C212.133 58.9728 199.761 73.7591 200.768 91.0521L201.704 107.143" stroke="black" stroke-width="3.09769" stroke-miterlimit="10"/>
<path d="M258.42 74.4411C253.111 64.0225 242.481 57.2057 230.653 57.8941L228.928 57.9945L228.404 58.025C216.484 58.7187 206.656 66.8424 202.65 77.9381" stroke="black" stroke-width="5.42096" stroke-miterlimit="10" stroke-linecap="round"/>
<path d="M263.913 101.311L260.434 101.514L261.784 124.726L265.264 124.524L263.913 101.311Z" fill="#7C7C7C"/>
<path d="M279.334 184.588L263.098 185.533L264.616 211.627L280.852 210.682L279.334 184.588Z" fill="white"/>
<path d="M276.908 187.931L265.891 188.572L266.886 205.678L277.903 205.037L276.908 187.931Z" fill="#DF631A"/>
<path d="M272.6 178.872L269.121 179.074L269.577 186.902L273.056 186.7L272.6 178.872Z" fill="black"/>
<path d="M223.059 132.766L246.115 131.424L244.821 132.796C242.599 135.154 239.559 136.572 236.324 136.76L233.532 136.923C230.471 137.101 227.449 136.165 225.025 134.288L223.059 132.766Z" fill="white"/>
<path d="M240.859 183.338C240.826 182.778 240.345 182.35 239.785 182.382C239.224 182.415 238.796 182.896 238.829 183.457C238.861 184.017 239.342 184.445 239.903 184.413C240.463 184.379 240.891 183.899 240.859 183.338Z" fill="#73A65B"/>
<path d="M241.492 194.209C241.459 193.649 240.978 193.221 240.417 193.253C239.857 193.286 239.429 193.767 239.461 194.328C239.494 194.888 239.975 195.316 240.536 195.284C241.096 195.25 241.524 194.77 241.492 194.209Z" fill="#73A65B"/>
<path d="M242.124 205.082C242.092 204.522 241.611 204.094 241.05 204.126C240.49 204.159 240.062 204.64 240.094 205.201C240.127 205.761 240.608 206.189 241.168 206.157C241.729 206.123 242.157 205.643 242.124 205.082Z" fill="#73A65B"/>
<path d="M203.31 106.206C203.215 106.209 203.123 106.203 203.028 106.208C197.293 106.542 192.905 111.283 193.226 116.8C193.547 122.315 198.456 126.516 204.191 126.182C204.286 126.177 204.376 126.16 204.47 126.152L203.31 106.206Z" fill="#DF631A"/>
<path d="M203.929 128.094L201.724 128.222C200.357 128.302 199.185 127.259 199.106 125.892L198.011 107.088C197.932 105.721 198.975 104.549 200.342 104.469L202.547 104.341C203.914 104.261 205.086 105.305 205.166 106.672L206.26 125.475C206.339 126.843 205.295 128.015 203.929 128.094Z" fill="#363636"/>
<path d="M203.448 104.831L199.969 105.033L201.32 128.246L204.799 128.043L203.448 104.831Z" fill="#7C7C7C"/>
<path d="M233.651 145.648C233.546 143.846 232.001 142.471 230.199 142.576C228.398 142.681 227.022 144.226 227.127 146.027C227.232 147.829 228.778 149.204 230.579 149.099C232.38 148.995 233.756 147.449 233.651 145.648Z" fill="black"/>
<path d="M202.877 123.002C202.877 123.002 200.163 147.596 229.301 145.901" stroke="black" stroke-width="1.54884" stroke-miterlimit="10" stroke-linecap="round"/>
<path d="M227.899 113.138C227.899 113.138 224.211 116.67 219.987 118.021C219.987 118.021 225.157 118.826 227.899 113.138Z" fill="#EEC189"/>
<path d="M238.375 112.527C238.375 112.527 242.448 115.607 246.8 116.459C246.8 116.459 241.759 117.859 238.375 112.527Z" fill="#EEC189"/>
<path d="M224.228 110.23C224.542 110.212 224.782 109.943 224.763 109.629C224.745 109.315 224.476 109.076 224.162 109.094C223.848 109.112 223.609 109.381 223.627 109.695C223.645 110.009 223.914 110.249 224.228 110.23Z" fill="white"/>
<path d="M240.283 109.297C240.597 109.279 240.836 109.009 240.818 108.695C240.8 108.382 240.53 108.142 240.217 108.16C239.903 108.179 239.663 108.448 239.682 108.762C239.7 109.075 239.969 109.315 240.283 109.297Z" fill="white"/>
<path d="M176.825 282.787L185.818 299.852L305.445 292.89L312.901 274.904C312.962 274.757 312.999 274.609 313.016 274.461L313.046 274.459L312.86 271.271L311.123 272.163L311.15 272.616L178.314 280.346L178.288 279.894L176.459 279.209L176.645 282.397L176.679 282.395C176.711 282.528 176.758 282.659 176.825 282.787Z" fill="#7B7871"/>
<path d="M303.313 294.905L312.741 272.165C313.21 271.032 312.333 269.799 311.109 269.87L178.038 277.614C176.831 277.685 176.1 278.979 176.665 280.048L188.03 301.614L303.313 294.905Z" fill="#646057"/>
<path d="M308.951 223.594L174.135 231.44L175.675 227.907L307.012 220.263L308.951 223.594Z" fill="#CBCAC7"/>
<path d="M303.3 294.904L188.017 301.613C186.301 301.713 184.791 300.492 184.528 298.794L174.133 231.439L308.949 223.594L306.437 291.699C306.374 293.417 305.016 294.804 303.3 294.904Z" fill="#ADAAA6"/>
<path d="M185.334 300.495C185.991 301.235 186.964 301.675 188.018 301.613L303.301 294.904C305.017 294.804 306.375 293.417 306.439 291.699L308.909 224.715C280.467 242.145 206.206 287.657 185.334 300.495Z" fill="#8F8C85"/>
<path d="M242.864 259.505C247.454 259.238 250.959 255.301 250.692 250.711C250.424 246.121 246.487 242.616 241.897 242.884C237.307 243.151 233.802 247.088 234.07 251.678C234.337 256.268 238.274 259.773 242.864 259.505Z" fill="#D4D4D4"/>
<path d="M348.777 194.998C366.224 191.185 377.276 173.951 373.463 156.504C369.65 139.057 352.415 128.005 334.969 131.818C317.522 135.632 306.47 152.866 310.283 170.312C314.096 187.759 331.331 198.811 348.777 194.998Z" fill="white"/>
<path d="M343.381 189.286C329.107 190.117 316.818 179.18 315.987 164.905C315.156 150.631 326.094 138.342 340.368 137.511L340.503 139.83C327.507 140.587 317.55 151.774 318.306 164.77C319.063 177.766 330.251 187.723 343.246 186.967C356.242 186.211 366.199 175.022 365.442 162.027C365.081 155.821 362.348 150.102 357.747 145.923L359.309 144.203C364.363 148.793 367.365 155.075 367.762 161.892C368.592 176.167 357.655 188.456 343.381 189.286Z" fill="#DF631A"/>
<path d="M361.398 142.991L354.508 142.09L357.171 148.508L361.398 142.991Z" fill="#DF631A"/>
<path d="M343.041 183.422C354.099 182.778 362.542 173.292 361.899 162.233C361.255 151.175 351.769 142.732 340.71 143.376C329.652 144.019 321.209 153.506 321.853 164.564C322.496 175.622 331.983 184.065 343.041 183.422Z" stroke="#537EB1" stroke-width="1.54884" stroke-miterlimit="10"/>
<path d="M343.043 183.421C350.121 183.009 355.338 173.71 354.695 162.652C354.051 151.594 347.791 142.963 340.712 143.375C333.633 143.787 328.416 153.086 329.06 164.144C329.703 175.202 335.964 183.833 343.043 183.421Z" stroke="#537EB1" stroke-width="1.54884" stroke-miterlimit="10"/>
<path d="M343.04 183.421C346.521 183.219 348.821 174.09 348.178 163.031C347.534 151.973 344.191 143.173 340.709 143.375C337.228 143.578 334.928 152.707 335.572 163.765C336.215 174.823 339.559 183.624 343.04 183.421Z" stroke="#537EB1" stroke-width="1.54884" stroke-miterlimit="10"/>
<path d="M331.559 146.295L350.348 145.201" stroke="#537EB1" stroke-width="1.54884" stroke-miterlimit="10"/>
<path d="M333.605 181.506L352.395 180.412" stroke="#537EB1" stroke-width="1.54884" stroke-miterlimit="10"/>
<path d="M327.023 150.045L355.287 148.4" stroke="#537EB1" stroke-width="1.54884" stroke-miterlimit="10"/>
<path d="M328.668 178.307L356.931 176.662" stroke="#537EB1" stroke-width="1.54884" stroke-miterlimit="10"/>
<path d="M323.711 155.783L359.237 153.716" stroke="#537EB1" stroke-width="1.54884" stroke-miterlimit="10"/>
<path d="M324.723 173.15L360.249 171.083" stroke="#537EB1" stroke-width="1.54884" stroke-miterlimit="10"/>
<path d="M322.191 165.061L361.823 162.754" stroke="#537EB1" stroke-width="1.54884" stroke-miterlimit="10"/>
<defs>
<filter id="filter0_d_35_30081" x="0.473279" y="0.193359" width="462.038" height="370.839" filterUnits="userSpaceOnUse" color-interpolation-filters="sRGB">
<feFlood flood-opacity="0" result="BackgroundImageFix"/>
<feColorMatrix in="SourceAlpha" type="matrix" values="0 0 0 0 0 0 0 0 0 0 0 0 0 0 0 0 0 0 127 0" result="hardAlpha"/>
<feOffset dy="4.11266"/>
<feGaussianBlur stdDeviation="2.05633"/>
<feComposite in2="hardAlpha" operator="out"/>
<feColorMatrix type="matrix" values="0 0 0 0 0 0 0 0 0 0 0 0 0 0 0 0 0 0 0.25 0"/>
<feBlend mode="normal" in2="BackgroundImageFix" result="effect1_dropShadow_35_30081"/>
<feBlend mode="normal" in="SourceGraphic" in2="effect1_dropShadow_35_30081" result="shape"/>
</filter>
</defs>
</svg>
