<svg width="816" height="1436" viewBox="0 0 816 1436" fill="none" xmlns="http://www.w3.org/2000/svg">
<g clip-path="url(#clip0_1_2)">
<mask id="mask0_1_2" style="mask-type:luminance" maskUnits="userSpaceOnUse" x="20" y="10" width="796" height="1426">
<path d="M816 1436V10H20V1436H816Z" fill="white"/>
</mask>
<g mask="url(#mask0_1_2)">
<path d="M913.637 446.256C913.637 446.256 1182.1 477.094 1170.97 346.735C1159.85 216.375 1019.35 -7.89901 871.907 81.8098C724.46 171.519 671.601 442.051 913.637 446.256Z" fill="#FFD587"/>
</g>
<mask id="mask1_1_2" style="mask-type:luminance" maskUnits="userSpaceOnUse" x="70" y="214" width="684" height="1222">
<path d="M753.062 1436V214H70.936V1436H753.062Z" fill="white"/>
</mask>
<g mask="url(#mask1_1_2)">
<path d="M548.68 1369.95C529.989 1337.97 502.941 1311.83 481.832 1281.41C466.889 1259.87 455 1241.33 430.939 1229.28C409.231 1218.4 384.13 1214.22 360.161 1218.21C312.16 1226.19 283.727 1262.86 261.307 1303.08C235.112 1350.07 221.977 1403.36 215.51 1456.52C213.33 1474.44 211.905 1492.89 216.495 1510.34C223.344 1536.38 242.717 1557.12 263.149 1574.49C295.348 1601.87 331.983 1623.94 371.159 1639.56C405.947 1653.43 445.534 1662.07 480.375 1648.34C510.744 1636.37 532.958 1608.77 545.832 1578.57C571.149 1519.19 582.34 1427.55 548.68 1369.95Z" fill="#FF847C"/>
</g>
<mask id="mask2_1_2" style="mask-type:luminance" maskUnits="userSpaceOnUse" x="0" y="10" width="796" height="1426">
<path d="M796 1436V10H0V1436H796Z" fill="white"/>
</mask>
<g mask="url(#mask2_1_2)">
<path d="M297.691 1339.91C292.563 1329.32 292.418 1318.36 296.114 1307.36C297.074 1304.49 296.896 1302.41 295.501 1299.72C290.493 1290.06 289.96 1280.01 294.728 1270.1C299.63 1259.92 308.699 1254.68 318.715 1250.84C320.387 1250.19 322.182 1250.54 322.928 1252.48C323.686 1254.44 322.539 1255.67 320.838 1256.44C320.008 1256.82 319.131 1257.1 318.307 1257.49C313.189 1259.91 308.299 1262.69 304.338 1266.86C296.778 1274.81 295.456 1288.22 301.513 1297.03C302.651 1296.02 303.74 1295.01 304.891 1294.06C311.705 1288.47 319.275 1284.87 328.305 1285.53C334.154 1285.95 338.272 1288.99 340.47 1294.5C343.621 1302.39 340.979 1309.63 333.422 1313.46C323.958 1318.26 314.874 1316.89 306.148 1311.37C304.912 1310.59 303.7 1309.77 302.077 1308.7C299.209 1317.72 298.561 1326.15 302.435 1334.97C304.181 1333.72 305.375 1332.77 306.653 1331.96C312.568 1328.22 318.895 1325.82 326.017 1326.22C333.248 1326.62 338.61 1331.36 339.964 1338.5C341.122 1344.6 338.029 1350.02 331.341 1353.01C321.85 1357.25 313.239 1354.95 305.253 1348.98C304.066 1348.1 302.992 1347.05 301.867 1346.08C295.498 1353.63 295.513 1375.54 301.5 1382.23C304.461 1380.37 307.305 1378.32 310.382 1376.72C315.504 1374.06 320.989 1372.92 326.739 1374.1C332.233 1375.23 336.533 1380.07 337.111 1385.56C337.699 1391.15 335.206 1395.03 329.153 1397.44C320.388 1400.93 311.92 1400.59 303.97 1395.03C303.147 1394.45 302.25 1393.99 301.113 1393.3C296.964 1402.56 295.401 1411.53 299.235 1420.84C304.147 1419.12 308.62 1417.21 313.273 1416.03C318.662 1414.65 324.178 1414.61 329.256 1417.47C333.626 1419.93 336.726 1423.54 336.591 1428.81C336.461 1433.88 332.893 1436.68 328.665 1438.55C318.713 1442.97 309.683 1441.14 301.491 1434.21C300.268 1433.18 299.078 1432.1 297.898 1431.07C288.195 1441.85 288.084 1463.52 297.429 1470.66C298.848 1469.08 300.226 1467.45 301.703 1465.91C304.925 1462.57 308.667 1459.99 313.024 1458.37C317.481 1456.72 321.93 1456.47 326.319 1458.6C334.552 1462.59 335.735 1471.85 328.753 1477.7C327.823 1478.48 326.829 1479.24 325.754 1479.78C317.409 1483.99 308.876 1485.85 299.91 1481.68C299.558 1481.51 299.084 1481.61 298.714 1481.58C296.16 1487.43 296.402 1491.83 299.562 1499.35C301.494 1503.94 304.224 1507.58 309.527 1508.46C311.4 1508.77 312.635 1509.94 312.224 1511.99C311.81 1514.06 310.092 1514.45 308.327 1514.31C307.132 1514.21 305.762 1514.1 304.82 1513.46C302.205 1511.7 299.092 1510.14 297.395 1507.65C291.57 1499.11 288.66 1489.78 292.648 1479.48C293.349 1477.67 293.226 1476.41 292.018 1474.9C282.567 1463.08 280.214 1440.62 293.414 1426.56C293.714 1426.24 293.875 1425.79 294.171 1425.28C288.944 1412.54 290.406 1400.21 296.808 1388.22C288.765 1371.69 288.659 1355.76 297.691 1339.91ZM330.562 1308.04C333.851 1306.36 335.669 1303.94 335.428 1300.06C335.085 1294.52 331.581 1291.17 325.766 1291.59C317.525 1292.18 310.837 1295.96 305.299 1302.53C312.919 1310.17 322.57 1312.12 330.562 1308.04ZM325.421 1348.51C326.885 1348.24 328.355 1347.66 329.662 1346.93C332.299 1345.46 334.38 1343.47 334.054 1340.06C333.72 1336.58 330.943 1333.26 327.494 1332.74C325.145 1332.39 322.617 1332.4 320.293 1332.86C314.856 1333.96 309.988 1336.35 305.63 1340.84C311.285 1346.85 317.508 1349.94 325.421 1348.51ZM325.904 1433.03C327.997 1432.09 330.376 1431.07 330.363 1428.37C330.349 1425.7 328.463 1423.9 326.152 1422.84C324.659 1422.15 322.986 1421.59 321.367 1421.5C314.816 1421.17 308.876 1423.16 302.971 1426.66C311.327 1436.27 319.65 1435.83 325.904 1433.03ZM328.163 1391.12C331.236 1389.33 331.908 1386.93 330.152 1383.82C328.145 1380.26 324.868 1379.51 321.168 1379.84C315.665 1380.35 310.271 1383.06 305.379 1387.81C311.62 1394.03 320.986 1395.3 328.163 1391.12ZM307.802 1477.64C313.711 1478.24 319.202 1476.76 324.141 1473.44C325.936 1472.23 327.516 1470.66 326.978 1468.17C326.439 1465.68 324.593 1464.1 322.298 1463.73C320.141 1463.39 317.723 1463.48 315.644 1464.12C309.788 1465.93 305.542 1469.93 301.576 1475.76C304.149 1476.56 305.94 1477.45 307.802 1477.64Z" fill="#1B1464"/>
</g>
<mask id="mask3_1_2" style="mask-type:luminance" maskUnits="userSpaceOnUse" x="20" y="0" width="796" height="1426">
<path d="M816 1426V0H20V1426H816Z" fill="white"/>
</mask>
<g mask="url(#mask3_1_2)">
<path d="M933.909 925.366C900.806 974.83 842.153 1001.15 783.807 991.016C753.171 985.695 725.431 970.685 716.682 935.803C694.183 846.109 775.464 836.003 795.625 729.885C815.787 623.769 784.457 431.945 930.995 491.122C1058.62 542.662 1037.43 770.68 933.909 925.366Z" stroke="white" stroke-width="2" stroke-miterlimit="10"/>
</g>
<mask id="mask4_1_2" style="mask-type:luminance" maskUnits="userSpaceOnUse" x="20" y="10" width="796" height="1426">
<path d="M816 1436V10H20V1436H816Z" fill="white"/>
</mask>
<g mask="url(#mask4_1_2)">
<path d="M831.526 204.118C795.7 202.35 759.945 199.415 724.321 195.189C705.755 192.986 686.921 191.045 668.552 187.495C650.395 183.986 642.873 166.945 635.527 151.505C620.83 120.615 612.185 86.8604 603.836 53.7828C595.135 19.3148 587.918 -15.5041 582.036 -50.5692C581.59 -53.224 577.58 -52.0977 578.024 -49.4541C584.585 -10.3427 592.821 28.4624 602.891 66.8117C611.553 99.8002 620.719 133.367 636.946 163.531C642.799 174.411 649.048 186.251 661.491 190.199C677.33 195.224 695.553 195.778 711.997 197.868C751.691 202.915 791.567 206.339 831.526 208.312C834.203 208.444 834.196 204.25 831.526 204.118Z" fill="white"/>
<path d="M839.774 160.242C808.169 158.625 776.727 154.878 745.668 148.736C730.06 145.649 714.563 141.985 699.219 137.762C683.373 133.401 666.22 130.521 658.961 113.798C652.832 99.6762 649.3 83.959 644.872 69.2188C640.37 54.2324 635.954 39.2204 631.619 24.1839C622.762 -6.54413 614.268 -37.3747 606.096 -68.2955C605.407 -70.9002 601.393 -69.795 602.084 -67.1803C611.125 -32.9719 620.561 1.12953 630.445 35.1006C635.385 52.0856 640.432 69.0406 645.586 85.9609C649.381 98.4173 651.924 114.342 660.34 124.733C667.738 133.868 679.727 136.543 690.453 139.643C707.015 144.431 723.772 148.552 740.661 151.995C773.348 158.657 806.472 162.731 839.773 164.434C842.449 164.573 842.441 160.379 839.774 160.242Z" fill="white"/>
<path d="M838.755 117.425C813.335 111.472 787.915 105.516 762.496 99.5613C750.154 96.6714 737.695 94.0757 725.441 90.8271C710.067 86.7496 702.969 77.6767 696.075 63.9325C673.772 19.4591 658.892 -28.4534 651.282 -77.6537C650.87 -80.3119 646.861 -79.1822 647.27 -76.5385C655.23 -25.0811 670.79 26.8119 695.837 72.5843C707.741 94.3397 729.107 96.042 751.355 101.254C780.12 107.991 808.884 114.729 837.648 121.467C840.254 122.079 841.366 118.037 838.755 117.425Z" fill="white"/>
<path d="M847.49 72.0532C812.039 64.8307 777.032 55.584 742.693 44.127C737.275 42.32 730.116 40.6734 726.029 36.4901C722.173 32.5429 720.704 26.615 719.006 21.5338C716.083 12.7839 713.579 3.86363 711.271 -5.07003C706.361 -24.067 702.733 -43.3514 700.218 -62.8141C699.877 -65.4522 695.711 -65.4868 696.057 -62.8141C698.62 -42.976 702.253 -23.3206 707.259 -3.95485C709.895 6.24104 712.739 16.4704 716.23 26.4078C718.605 33.1691 721.229 38.9889 727.613 42.7511C735.148 47.1906 744.578 49.2071 752.846 51.843C762.875 55.0403 772.959 58.0561 783.094 60.8914C804.003 66.7402 825.119 71.7646 846.386 76.0972C848.998 76.6286 850.117 72.5879 847.49 72.0532Z" fill="white"/>
<path d="M831.473 88.155C792.737 84.1131 750.465 72.2584 718.199 49.4168C702.843 38.5469 695.582 13.3033 689.727 -3.83091C682.867 -23.9052 678.249 -44.629 675.667 -65.6915C675.343 -68.3341 671.178 -68.3664 671.506 -65.6915C674.214 -43.6186 679.014 -21.9333 686.336 -0.936577C692.225 15.9492 698.924 39.4058 713.285 50.9676C728.088 62.8836 747.815 70.7968 765.487 77.2929C786.792 85.1236 808.936 89.9954 831.473 92.3472C834.134 92.6246 834.114 88.4301 831.473 88.155Z" fill="white"/>
<path d="M821.249 133.677C794.254 129.387 767.361 124.468 740.611 118.822C728.261 116.215 715.294 114.22 703.361 110.007C688.912 104.905 681.151 93.4583 674.564 80.2133C663.313 57.5889 658.128 32.6027 651.565 8.35179C648.384 -3.40157 644.8 -14.9923 640.336 -26.319C635.189 -39.3814 629.728 -52.0995 628.604 -66.2771C628.392 -68.9486 624.229 -68.9709 624.443 -66.2771C625.497 -52.9763 630.042 -40.9332 634.948 -28.6507C640.157 -15.6039 644.385 -2.34433 648.028 11.2271C654.79 36.4172 660.34 62.3225 672.615 85.5385C677.257 94.3184 682.74 103.064 691.112 108.672C701.733 115.786 715.27 117.599 727.478 120.277C758.19 127.013 789.096 132.786 820.143 137.719C822.763 138.136 823.892 134.097 821.249 133.677Z" fill="white"/>
<path d="M820.474 180.972C787.212 177.208 754.045 172.66 721.01 167.232C705.964 164.76 690.821 162.409 675.903 159.234C658.19 155.465 648.115 145.912 639.716 130.216C624.819 102.378 620.087 71.8538 614.958 41.0689C609.553 8.62514 604.149 -23.8197 598.744 -56.2645C598.302 -58.9194 594.292 -57.793 594.732 -55.1494C600.587 -20.0018 606.44 15.1469 612.298 50.2944C617.532 81.6954 623.42 113.705 641.069 140.828C657.709 166.399 690.615 166.431 717.912 170.945C751.973 176.578 786.175 181.284 820.475 185.165C823.131 185.466 823.11 181.27 820.474 180.972Z" fill="white"/>
</g>
<mask id="mask5_1_2" style="mask-type:luminance" maskUnits="userSpaceOnUse" x="20" y="10" width="796" height="1426">
<path d="M816 1436V10H20V1436H816Z" fill="white"/>
</mask>
<g mask="url(#mask5_1_2)">
<path d="M-179.56 416.169C-175.851 430.959 -135.203 421.529 -126.041 419.165C-107.452 414.367 -89.308 409.593 -71.535 402.109C-16.492 378.929 26.454 335.607 63.118 289.352C126.403 209.513 213.83 120.319 224.784 13.6172C233.074 -67.1267 187.139 -125.761 111.381 -145.006C91.785 -149.984 71.349 -154.275 51.496 -150.463C14.927 -143.439 -10.972 -111.151 -31.394 -79.7847C-48.712 -53.1853 -64.648 -25.4307 -75.38 4.48744C-98.616 69.2535 -97.31 143.315 -133.872 201.5C-149.379 226.178 -170.999 246.636 -185.38 271.993C-207.29 310.617 -210.25 359.578 -193.16 400.597C-191.51 401.518 -186.02 406.389 -184.37 407.31C-185.11 409.104 -180.032 414.281 -179.56 416.169Z" fill="#FECEAB"/>
</g>
<mask id="mask6_1_2" style="mask-type:luminance" maskUnits="userSpaceOnUse" x="20" y="10" width="796" height="1426">
<path d="M816 1436V10H20V1436H816Z" fill="white"/>
</mask>
<g mask="url(#mask6_1_2)">
<path d="M421.561 1554.08C416.196 1543.6 410.533 1533.26 405.555 1522.59C401.269 1513.41 399.317 1503.43 399.688 1493.32C400.002 1484.74 401.115 1476.16 402.5 1467.68C404.007 1458.46 408.988 1450.9 415.322 1444.22C421.589 1437.61 428.22 1431.29 433.973 1424.25C438.352 1418.9 442.097 1412.86 445.256 1406.67C450.667 1396.08 449.553 1384.74 447.382 1373.54C444.808 1360.26 438.058 1349.12 429.214 1339.16C424.044 1333.33 418.786 1327.59 413.681 1321.71C413.003 1320.93 412.99 1319.57 412.668 1318.48C413.849 1318.17 415.173 1317.38 416.176 1317.68C417.896 1318.19 419.599 1319.16 420.991 1320.33C440.665 1336.82 454.058 1356.84 457.005 1383.22C459.011 1401.16 452.754 1416.03 441.798 1429.34C435.618 1436.84 428.842 1443.86 422.241 1451C416.219 1457.52 412.795 1465.17 411.317 1473.93C409.052 1487.37 408.424 1500.74 411.107 1514.19C413.072 1524.04 417.987 1532.56 422.538 1541.28C426.311 1548.5 429.875 1555.84 433.439 1563.17C433.754 1563.82 433.69 1565.21 433.262 1565.53C432.651 1566 431.42 1566.11 430.674 1565.82C429.859 1565.49 429.181 1564.61 428.641 1563.83C426.375 1560.55 424.183 1557.22 421.965 1553.91C421.831 1553.96 421.696 1554.02 421.561 1554.08Z" fill="white"/>
<path d="M467.494 1342.76C473.873 1352.46 479.988 1362.34 483.516 1373.55C490.881 1396.94 484.942 1416.8 467.332 1433.27C460.682 1439.49 453.465 1445.09 446.693 1451.18C435.885 1460.91 430.596 1472.87 431.187 1487.79C431.765 1502.38 435.705 1515.96 441.344 1529.15C444.653 1536.89 448.544 1544.38 452.121 1552.01C452.869 1553.61 453.567 1555.27 453.932 1556.99C454.092 1557.74 453.587 1559.12 452.982 1559.43C452.239 1559.82 450.809 1559.76 450.154 1559.25C448.924 1558.31 447.855 1557.03 447.035 1555.69C438.075 1541.03 430.713 1525.62 425.914 1509.04C423.346 1500.18 422.534 1491.09 422.875 1481.89C423.371 1468.51 429.539 1457.65 438.541 1448.47C445.65 1441.21 453.494 1434.69 461.078 1427.92C470.765 1419.27 477.657 1409.05 479.05 1395.74C480.197 1384.79 477.339 1374.58 472.808 1364.81C466.034 1350.19 456.637 1337.33 446.03 1325.34C441.46 1320.18 436.644 1315.23 431.947 1310.18C431.526 1309.73 430.986 1309.28 430.814 1308.73C430.579 1307.98 430.341 1306.61 430.644 1306.43C431.332 1306.02 432.46 1305.88 433.208 1306.17C434.241 1306.56 435.122 1307.41 436.01 1308.13C448.216 1318.09 459.11 1329.26 467.494 1342.76Z" fill="white"/>
<path d="M487.056 1330.13C497.081 1346.21 503.158 1360.11 505.629 1375.26C508.509 1392.91 505.332 1409.53 495.209 1424.57C488.919 1433.92 481.305 1441.95 472.621 1449.05C467.7 1453.08 463.038 1457.43 458.353 1461.75C447.32 1471.9 445.036 1484.61 449.381 1498.29C452.724 1508.82 457.582 1518.86 461.764 1529.11C464.141 1534.94 466.519 1540.77 468.882 1546.6C469.114 1547.17 469.489 1547.83 469.381 1548.37C469.159 1549.48 468.925 1551.09 468.192 1551.45C467.48 1551.8 465.71 1551.16 465.151 1550.4C463.538 1548.2 462.32 1545.7 460.915 1543.34C452.985 1530.03 446.756 1515.96 442.198 1501.13C440.376 1495.2 439.697 1489.17 439.86 1482.99C440.146 1472.12 445.222 1463.64 452.951 1456.6C460.403 1449.81 468.322 1443.53 475.61 1436.58C492.252 1420.7 501.616 1401.55 498.48 1377.97C495.96 1359.03 488.654 1341.89 476.106 1327.33C471.783 1322.31 467.045 1317.65 462.506 1312.82C461.962 1312.24 461.309 1311.68 461 1310.98C460.616 1310.11 460.538 1309.1 460.328 1308.15C461.326 1308.08 462.569 1307.59 463.28 1308.01C466.223 1309.75 469.393 1311.38 471.77 1313.76C477.872 1319.88 483.592 1326.38 487.056 1330.13Z" fill="white"/>
<path d="M503.95 1332.88C511.808 1346.09 519.011 1359.66 523.934 1374.25C533.174 1401.64 528.189 1426.01 507.867 1446.9C501.206 1453.75 494.648 1460.71 488.318 1467.87C479.829 1477.46 476.224 1488.66 477.936 1501.59C479.2 1511.15 481.323 1520.45 484.381 1529.57C485.198 1532 485.925 1534.48 486.558 1536.97C486.956 1538.54 487.211 1540.33 485.347 1541.15C483.406 1542.01 482.281 1540.52 481.65 1539.06C479.305 1533.61 476.841 1528.19 474.953 1522.57C473.148 1517.21 471.885 1511.64 470.593 1506.12C466.376 1488.07 471.304 1472.6 483.854 1459.36C490.125 1452.75 496.366 1446.11 502.743 1439.6C522.445 1419.48 525.733 1396.04 515.521 1370.6C509.951 1356.73 502.691 1343.55 496.185 1330.06C495.53 1328.7 494.584 1327.43 494.226 1326C493.953 1324.92 494.398 1323.65 494.523 1322.46C495.643 1322.91 497.168 1323.05 497.809 1323.88C500.022 1326.75 501.927 1329.86 503.95 1332.88Z" fill="white"/>
</g>
<mask id="mask7_1_2" style="mask-type:luminance" maskUnits="userSpaceOnUse" x="20" y="10" width="796" height="1426">
<path d="M816 1436V10H20V1436H816Z" fill="white"/>
</mask>
<g mask="url(#mask7_1_2)">
<path d="M233.964 -76.9795C233.964 -76.9795 291.661 46.8419 154.837 239.536C18.0129 432.229 -21.55 427.247 -41.332 531.9C-61.113 636.553 97.14 538.675 126.813 722.999C156.487 907.323 -47.925 947.19 -47.925 947.19" stroke="white" stroke-width="2" stroke-miterlimit="10"/>
</g>
<path d="M287.762 112.605C301.147 117.066 308.477 135.327 302.369 145.548C300.571 148.556 297.103 151.392 293.807 152.479C285.967 155.068 274.053 147.623 270.21 138.605C266.667 130.289 269.82 119.379 277.802 115.051C281.267 113.173 285.685 113.078 287.762 112.605Z" fill="white"/>
<path d="M227.257 114.534C225.23 122.256 219.517 125.612 211.702 123.669C201.471 121.125 194.794 109.115 197.653 98.3977C200.115 89.1666 206.666 84.6513 214.4 86.8549C223.958 89.5788 230.25 103.127 227.257 114.534Z" fill="white"/>
<path d="M256.307 50.0392C266.682 53.1808 274.03 65.9335 271.044 75.6136C268.87 82.6578 261.693 86.7431 254.862 84.8247C246.245 82.4049 237.393 66.9573 239.876 58.6732C241.912 51.8807 249.397 47.947 256.307 50.0392Z" fill="white"/>
<path d="M226.956 159.371C228.98 157.697 231.766 154.353 235.325 152.716C239.648 150.727 243.984 152.696 246.362 156.792C249.116 161.535 251.9 166.513 253.247 171.76C254.614 177.079 252.45 182.105 247.1 184.661C241.778 187.203 237.1 185.626 233.25 181.382C228.093 175.695 225.475 169.124 226.956 159.371Z" fill="white"/>
<path d="M144.606 133.976C146.949 126.183 152.488 122.65 158.923 124.846C166.369 127.386 172.194 138.684 169.897 146.132C168.064 152.076 160.619 155.755 154.119 153.929C146.546 151.8 142.07 142.413 144.606 133.976Z" fill="white"/>
<path d="M179.679 88.0033C177.937 94.4916 172.909 97.8661 167.342 96.2819C161.132 94.515 154.362 82.3294 156.216 76.2589C157.738 71.2746 163.367 67.8622 168.317 68.9206C176.1 70.585 181.791 80.1425 179.679 88.0033Z" fill="white"/>
<path d="M147.004 183.617C148.634 177.692 155.82 174.563 162.775 176.746C169.036 178.714 172.06 186.059 169.81 193.833C168.247 199.235 163.219 202.019 157.852 200.455C151.015 198.462 145.344 189.657 147.004 183.617Z" fill="white"/>
<path d="M205.638 168.549C203.837 174.154 198.071 177.349 192.487 175.838C186.138 174.12 181.523 163.95 183.782 156.653C185.311 151.714 189.983 148.974 194.671 150.267C200.569 151.895 207.355 163.205 205.638 168.549Z" fill="white"/>
<path d="M669.813 1356C667.817 1351.95 665.562 1348.25 664.095 1344.26C656.771 1324.31 670.012 1313.38 683.94 1313.93C684.769 1313.97 685.604 1313.85 686.919 1313.77C686.697 1312.15 686.304 1310.74 686.347 1309.34C686.482 1304.86 685.969 1300.16 687.199 1295.98C689.074 1289.63 694.234 1286.44 700.78 1285.74C707.625 1285.01 713.989 1286.8 720.097 1289.69C723.771 1291.43 727.364 1293.34 731.449 1295.41C732.401 1293.24 733.229 1291.13 734.236 1289.11C737.62 1282.32 743.561 1279.25 750.769 1281.34C754.599 1282.45 758.478 1284.3 761.618 1286.74C770.17 1293.4 775.724 1302.33 778.991 1312.69C779.312 1313.71 779.867 1315 779.517 1315.81C778.903 1317.23 777.891 1318.86 776.611 1319.46C775.891 1319.79 774.035 1318.44 773.184 1317.43C772.415 1316.52 772.357 1315.02 771.917 1313.8C769.074 1305.95 765.041 1298.76 758.528 1293.52C755.465 1291.06 751.544 1289.34 747.738 1288.26C744.288 1287.27 741.827 1289.14 740.355 1292.99C739.095 1296.29 737.025 1299.79 740.699 1303.08C746.895 1308.62 751.776 1315.2 754.757 1322.99C755.964 1326.14 756.776 1329.67 756.747 1333.02C756.698 1338.87 751.392 1341.96 746.318 1339.05C743.647 1337.52 741.287 1334.97 739.539 1332.37C735.14 1325.82 732.645 1318.4 731.991 1310.54C731.588 1305.71 729.714 1302.36 725.329 1300.49C719.426 1297.97 713.688 1294.76 707.542 1293.19C697.166 1290.54 691.397 1296.66 693.282 1307.28C694.234 1312.65 696.234 1316.48 702.034 1318.67C712.289 1322.55 720.608 1329.41 726.304 1339.08C728.519 1342.85 730.169 1346.83 729.839 1351.35C729.428 1356.99 725.047 1360.28 720.011 1357.78C715.701 1355.65 711.361 1352.64 708.373 1348.93C702.859 1342.08 698.12 1334.56 693.453 1327.07C690.024 1321.57 687.189 1320.04 680.117 1321.35C673.86 1322.51 669.484 1326.69 669.205 1332.43C668.827 1340.2 672.231 1346.71 677.028 1352.45C677.882 1353.47 680.082 1353.43 681.688 1353.72C686.727 1354.6 691.889 1355.01 696.783 1356.39C699.519 1357.17 702.062 1359.23 704.251 1361.22C706.66 1363.39 707.346 1366.45 705.796 1369.51C704.352 1372.37 701.679 1373.28 698.711 1372.89C696.394 1372.58 693.973 1372.16 691.89 1371.16C687.447 1369.04 683.133 1366.62 678.881 1364.13C675.386 1362.08 672.997 1362.2 669.708 1365.1C666.998 1367.48 666.334 1369.75 668.101 1373.18C669.469 1375.83 671.396 1378.21 673.222 1380.59C674.571 1382.36 676.156 1383.97 674.343 1386.27C672.92 1388.07 670.251 1388.13 668.254 1385.59C665.352 1381.92 662.504 1377.98 660.681 1373.71C658.534 1368.67 660.34 1363.92 664.369 1360.24C666.09 1358.68 668.043 1357.37 669.813 1356ZM702.365 1327.36C707.548 1338.85 715.93 1348.33 722.32 1350.31C721.217 1341.05 713.53 1331.96 702.365 1327.36ZM749.157 1331.74C748.939 1325.06 745.481 1318.27 740.311 1314.36C741.595 1322.96 744.156 1328 749.157 1331.74Z" fill="white"/>
</g>
<defs>
<clipPath id="clip0_1_2">
<rect width="1436" height="816" fill="white" transform="matrix(0 1 -1 0 816 0)"/>
</clipPath>
</defs>
</svg>
