<svg width="1436" height="816" viewBox="0 0 1436 816" fill="none" xmlns="http://www.w3.org/2000/svg">
<mask id="mask0_342_13210" style="mask-type:luminance" maskUnits="userSpaceOnUse" x="10" y="0" width="1426" height="796">
<path d="M1436 0H10V796H1436V0Z" fill="white"/>
</mask>
<g mask="url(#mask0_342_13210)">
<path d="M446.256 -97.6371C446.256 -97.6371 477.094 -366.102 346.735 -354.974C216.375 -343.846 -7.899 -203.354 81.8098 -55.9068C171.519 91.5401 442.051 144.399 446.256 -97.6371Z" fill="#FFD587"/>
</g>
<mask id="mask1_342_13210" style="mask-type:luminance" maskUnits="userSpaceOnUse" x="214" y="62" width="1222" height="684">
<path d="M1436 62.9375H214V745.064H1436V62.9375Z" fill="white"/>
</mask>
<g mask="url(#mask1_342_13210)">
<path d="M1369.95 267.32C1337.97 286.011 1311.83 313.059 1281.41 334.168C1259.87 349.111 1241.33 361 1229.28 385.061C1218.4 406.769 1214.22 431.87 1218.21 455.839C1226.19 503.84 1262.86 532.273 1303.08 554.693C1350.07 580.888 1403.36 594.023 1456.52 600.49C1474.44 602.67 1492.89 604.095 1510.34 599.505C1536.38 592.656 1557.12 573.283 1574.49 552.851C1601.87 520.652 1623.94 484.017 1639.56 444.841C1653.43 410.053 1662.07 370.466 1648.34 335.625C1636.37 305.256 1608.77 283.042 1578.57 270.168C1519.19 244.851 1427.55 233.66 1369.95 267.32Z" fill="#FF847C"/>
</g>
<mask id="mask2_342_13210" style="mask-type:luminance" maskUnits="userSpaceOnUse" x="10" y="20" width="1426" height="796">
<path d="M1436 20H10V816H1436V20Z" fill="white"/>
</mask>
<g mask="url(#mask2_342_13210)">
<path d="M1339.91 518.309C1329.32 523.437 1318.36 523.582 1307.36 519.886C1304.49 518.926 1302.41 519.104 1299.72 520.499C1290.06 525.507 1280.01 526.04 1270.1 521.272C1259.92 516.37 1254.68 507.301 1250.84 497.285C1250.19 495.613 1250.54 493.818 1252.48 493.072C1254.44 492.314 1255.67 493.461 1256.44 495.162C1256.82 495.992 1257.1 496.869 1257.49 497.693C1259.91 502.811 1262.69 507.701 1266.86 511.662C1274.81 519.222 1288.22 520.544 1297.03 514.487C1296.02 513.349 1295.01 512.26 1294.06 511.109C1288.47 504.295 1284.87 496.725 1285.53 487.695C1285.95 481.846 1288.99 477.728 1294.5 475.53C1302.39 472.379 1309.63 475.021 1313.46 482.578C1318.26 492.042 1316.89 501.126 1311.37 509.852C1310.59 511.088 1309.77 512.3 1308.7 513.923C1317.72 516.791 1326.15 517.439 1334.97 513.565C1333.72 511.819 1332.77 510.625 1331.96 509.347C1328.22 503.432 1325.82 497.105 1326.22 489.983C1326.62 482.752 1331.36 477.39 1338.5 476.036C1344.6 474.878 1350.02 477.971 1353.01 484.659C1357.25 494.15 1354.95 502.761 1348.98 510.747C1348.1 511.934 1347.05 513.008 1346.08 514.133C1353.63 520.502 1375.54 520.487 1382.23 514.5C1380.37 511.539 1378.32 508.695 1376.72 505.618C1374.06 500.496 1372.92 495.011 1374.1 489.261C1375.23 483.767 1380.07 479.467 1385.56 478.889C1391.15 478.301 1395.03 480.794 1397.44 486.847C1400.93 495.612 1400.59 504.08 1395.03 512.03C1394.45 512.853 1393.99 513.75 1393.3 514.887C1402.56 519.036 1411.53 520.599 1420.84 516.765C1419.12 511.853 1417.21 507.38 1416.03 502.727C1414.65 497.338 1414.61 491.822 1417.47 486.744C1419.93 482.374 1423.54 479.274 1428.81 479.409C1433.88 479.539 1436.68 483.107 1438.55 487.335C1442.97 497.287 1441.14 506.317 1434.21 514.509C1433.18 515.732 1432.1 516.922 1431.07 518.102C1441.85 527.805 1463.52 527.916 1470.66 518.571C1469.08 517.152 1467.45 515.774 1465.91 514.297C1462.57 511.075 1459.99 507.333 1458.37 502.976C1456.72 498.519 1456.47 494.07 1458.6 489.681C1462.59 481.448 1471.85 480.265 1477.7 487.247C1478.48 488.177 1479.24 489.171 1479.78 490.246C1483.99 498.591 1485.85 507.124 1481.68 516.09C1481.51 516.442 1481.61 516.916 1481.58 517.286C1487.43 519.84 1491.83 519.598 1499.35 516.438C1503.94 514.506 1507.58 511.776 1508.46 506.473C1508.77 504.6 1509.94 503.365 1511.99 503.776C1514.06 504.19 1514.45 505.908 1514.31 507.673C1514.21 508.868 1514.1 510.238 1513.46 511.18C1511.7 513.795 1510.14 516.908 1507.65 518.605C1499.11 524.43 1489.78 527.34 1479.48 523.352C1477.67 522.651 1476.41 522.774 1474.9 523.982C1463.08 533.433 1440.62 535.786 1426.56 522.586C1426.24 522.286 1425.79 522.125 1425.28 521.829C1412.54 527.056 1400.21 525.594 1388.22 519.192C1371.69 527.235 1355.76 527.341 1339.91 518.309ZM1308.04 485.438C1306.36 482.149 1303.94 480.331 1300.06 480.572C1294.52 480.915 1291.17 484.419 1291.59 490.234C1292.18 498.475 1295.96 505.163 1302.53 510.701C1310.17 503.081 1312.12 493.43 1308.04 485.438ZM1348.51 490.579C1348.24 489.115 1347.66 487.645 1346.93 486.338C1345.46 483.701 1343.47 481.62 1340.06 481.946C1336.58 482.28 1333.26 485.057 1332.74 488.506C1332.39 490.855 1332.4 493.383 1332.86 495.707C1333.96 501.144 1336.35 506.012 1340.84 510.37C1346.85 504.715 1349.94 498.492 1348.51 490.579ZM1433.03 490.096C1432.09 488.003 1431.07 485.624 1428.37 485.637C1425.7 485.651 1423.9 487.537 1422.84 489.848C1422.15 491.341 1421.59 493.014 1421.5 494.633C1421.17 501.184 1423.16 507.124 1426.66 513.029C1436.27 504.673 1435.83 496.35 1433.03 490.096ZM1391.12 487.837C1389.33 484.764 1386.93 484.092 1383.82 485.848C1380.26 487.855 1379.51 491.132 1379.84 494.832C1380.35 500.335 1383.06 505.729 1387.81 510.621C1394.03 504.38 1395.3 495.014 1391.12 487.837ZM1477.64 508.198C1478.24 502.289 1476.76 496.798 1473.44 491.859C1472.23 490.064 1470.66 488.484 1468.17 489.022C1465.68 489.561 1464.1 491.407 1463.73 493.702C1463.39 495.859 1463.48 498.277 1464.12 500.356C1465.93 506.212 1469.93 510.458 1475.76 514.424C1476.56 511.851 1477.45 510.06 1477.64 508.198Z" fill="#1B1464"/>
</g>
<mask id="mask3_342_13210" style="mask-type:luminance" maskUnits="userSpaceOnUse" x="0" y="0" width="1426" height="796">
<path d="M1426 0H0V796H1426V0Z" fill="white"/>
</mask>
<g mask="url(#mask3_342_13210)">
<path d="M925.366 -117.909C974.83 -84.8058 1001.15 -26.1528 991.016 32.1929C985.695 62.829 970.685 90.5685 935.803 99.3179C846.109 121.817 836.003 40.5355 729.885 20.3745C623.769 0.212524 431.945 31.5429 491.122 -114.995C542.662 -242.622 770.68 -221.43 925.366 -117.909Z" stroke="white" stroke-width="2" stroke-miterlimit="10"/>
</g>
<mask id="mask4_342_13210" style="mask-type:luminance" maskUnits="userSpaceOnUse" x="10" y="0" width="1426" height="796">
<path d="M1436 0H10V796H1436V0Z" fill="white"/>
</mask>
<g mask="url(#mask4_342_13210)">
<path d="M204.118 -15.5263C202.35 20.3003 199.415 56.0551 195.189 91.6794C192.986 110.245 191.045 129.079 187.495 147.448C183.986 165.605 166.945 173.127 151.505 180.473C120.615 195.17 86.8604 203.815 53.7828 212.164C19.3148 220.865 -15.5041 228.082 -50.5692 233.964C-53.224 234.41 -52.0977 238.42 -49.4541 237.976C-10.3427 231.415 28.4624 223.179 66.8117 213.109C99.8002 204.447 133.367 195.281 163.531 179.054C174.411 173.201 186.251 166.952 190.199 154.509C195.224 138.67 195.778 120.447 197.868 104.003C202.915 64.3092 206.339 24.4329 208.312 -15.5263C208.444 -18.2029 204.25 -18.1962 204.118 -15.5263Z" fill="white"/>
<path d="M160.242 -23.7738C158.625 7.83072 154.878 39.2727 148.736 70.3322C145.649 85.9404 141.985 101.437 137.762 116.781C133.401 132.627 130.521 149.78 113.798 157.039C99.6762 163.168 83.959 166.7 69.2188 171.128C54.2324 175.63 39.2204 180.046 24.1839 184.381C-6.54413 193.238 -37.3747 201.732 -68.2955 209.904C-70.9002 210.593 -69.795 214.607 -67.1803 213.916C-32.9719 204.875 1.12953 195.439 35.1006 185.555C52.0856 180.615 69.0406 175.568 85.9609 170.414C98.4173 166.619 114.342 164.076 124.733 155.66C133.868 148.262 136.543 136.273 139.643 125.547C144.431 108.985 148.552 92.2277 151.995 75.3393C158.657 42.6524 162.731 9.52774 164.434 -23.7727C164.573 -26.4492 160.379 -26.4415 160.242 -23.7738Z" fill="white"/>
<path d="M117.425 -22.7551C111.472 2.66494 105.516 28.085 99.5613 53.5039C96.6714 65.8463 94.0757 78.3048 90.8271 90.5588C86.7496 105.933 77.6767 113.031 63.9325 119.925C19.4591 142.228 -28.4534 157.108 -77.6537 164.718C-80.3119 165.13 -79.1822 169.139 -76.5385 168.73C-25.0811 160.77 26.8119 145.21 72.5843 120.163C94.3397 108.259 96.042 86.8928 101.254 64.6446C107.991 35.8803 114.729 7.11591 121.467 -21.6484C122.079 -24.2542 118.037 -25.3664 117.425 -22.7551Z" fill="white"/>
<path d="M72.0532 -31.4898C64.8307 3.96095 55.584 38.9684 44.127 73.3069C42.32 78.7253 40.6734 85.8837 36.4901 89.971C32.5429 93.8271 26.615 95.2964 21.5338 96.9935C12.7839 99.9165 3.86363 102.421 -5.07003 104.729C-24.067 109.639 -43.3514 113.267 -62.8141 115.782C-65.4522 116.123 -65.4868 120.289 -62.8141 119.943C-42.976 117.38 -23.3206 113.747 -3.95485 108.741C6.24104 106.105 16.4704 103.261 26.4078 99.7695C33.1691 97.3948 38.9889 94.7713 42.7511 88.3867C47.1906 80.8523 49.2071 71.422 51.843 63.1535C55.0403 53.125 58.0561 43.0412 60.8914 32.9055C66.7402 11.9972 71.7646 -9.11888 76.0972 -30.3865C76.6286 -32.9978 72.5879 -34.1166 72.0532 -31.4898Z" fill="white"/>
<path d="M88.155 -15.4726C84.1131 23.2628 72.2584 65.5348 49.4168 97.8015C38.5469 113.157 13.3033 120.418 -3.83094 126.273C-23.9052 133.133 -44.629 137.751 -65.6915 140.333C-68.3341 140.657 -68.3664 144.822 -65.6915 144.494C-43.6186 141.786 -21.9333 136.986 -0.936607 129.664C15.9492 123.775 39.4058 117.076 50.9676 102.715C62.8836 87.9123 70.7968 68.1848 77.2929 50.5125C85.1236 29.2084 89.9954 7.06416 92.3472 -15.4726C92.6246 -18.1337 88.4301 -18.1138 88.155 -15.4726Z" fill="white"/>
<path d="M133.677 -5.24931C129.387 21.7461 124.468 48.6388 118.822 75.3888C116.215 87.739 114.22 100.706 110.007 112.639C104.905 127.088 93.4583 134.849 80.2133 141.436C57.5889 152.687 32.6027 157.872 8.35176 164.435C-3.4016 167.616 -14.9923 171.2 -26.319 175.664C-39.3814 180.811 -52.0995 186.272 -66.2771 187.396C-68.9486 187.608 -68.9709 191.771 -66.2771 191.557C-52.9763 190.503 -40.9332 185.958 -28.6507 181.052C-15.6039 175.843 -2.34436 171.615 11.2271 167.972C36.4172 161.21 62.3225 155.66 85.5385 143.385C94.3184 138.743 103.064 133.26 108.672 124.888C115.786 114.267 117.599 100.73 120.277 88.5217C127.013 57.8105 132.786 26.9036 137.719 -4.14265C138.136 -6.76281 134.097 -7.89158 133.677 -5.24931Z" fill="white"/>
<path d="M180.972 -4.47423C177.208 28.7875 172.66 61.9553 167.232 94.9904C164.76 110.036 162.409 125.179 159.234 140.097C155.465 157.81 145.912 167.885 130.216 176.284C102.378 191.181 71.8538 195.913 41.0689 201.042C8.62514 206.447 -23.8197 211.851 -56.2645 217.256C-58.9194 217.698 -57.793 221.708 -55.1494 221.268C-20.0018 215.413 15.1469 209.56 50.2944 203.702C81.6954 198.468 113.705 192.58 140.828 174.931C166.399 158.291 166.431 125.385 170.945 98.0882C176.578 64.0271 181.284 29.8245 185.165 -4.47533C185.466 -7.13088 181.27 -7.10987 180.972 -4.47423Z" fill="white"/>
</g>
<mask id="mask5_342_13210" style="mask-type:luminance" maskUnits="userSpaceOnUse" x="10" y="0" width="1426" height="796">
<path d="M1436 0H10V796H1436V0Z" fill="white"/>
</mask>
<g mask="url(#mask5_342_13210)">
<path d="M416.169 995.56C430.959 991.851 421.529 951.203 419.165 942.041C414.367 923.452 409.593 905.308 402.109 887.535C378.929 832.492 335.607 789.546 289.352 752.882C209.513 689.597 120.319 602.17 13.6172 591.216C-67.1267 582.926 -125.761 628.861 -145.006 704.619C-149.984 724.215 -154.275 744.651 -150.463 764.504C-143.439 801.073 -111.151 826.972 -79.7847 847.394C-53.1853 864.712 -25.4307 880.648 4.48744 891.38C69.2535 914.616 143.315 913.31 201.5 949.872C226.178 965.379 246.636 986.999 271.993 1001.38C310.617 1023.29 359.578 1026.25 400.597 1009.16C401.518 1007.51 406.389 1002.02 407.31 1000.37C409.104 1001.11 414.281 996.032 416.169 995.56Z" fill="#FECEAB"/>
</g>
<mask id="mask6_342_13210" style="mask-type:luminance" maskUnits="userSpaceOnUse" x="10" y="0" width="1426" height="796">
<path d="M1436 0H10V796H1436V0Z" fill="white"/>
</mask>
<g mask="url(#mask6_342_13210)">
<path d="M1554.08 394.439C1543.6 399.804 1533.26 405.467 1522.59 410.445C1513.41 414.731 1503.43 416.683 1493.32 416.312C1484.74 415.998 1476.16 414.885 1467.68 413.5C1458.46 411.993 1450.9 407.012 1444.22 400.678C1437.61 394.411 1431.29 387.78 1424.25 382.027C1418.9 377.648 1412.86 373.903 1406.67 370.744C1396.08 365.333 1384.74 366.447 1373.54 368.618C1360.26 371.192 1349.12 377.942 1339.16 386.786C1333.33 391.956 1327.59 397.214 1321.71 402.319C1320.93 402.997 1319.57 403.01 1318.48 403.332C1318.17 402.151 1317.38 400.827 1317.68 399.824C1318.19 398.104 1319.16 396.401 1320.33 395.009C1336.82 375.335 1356.84 361.942 1383.22 358.995C1401.16 356.989 1416.03 363.246 1429.34 374.202C1436.84 380.382 1443.86 387.158 1451 393.759C1457.52 399.781 1465.17 403.205 1473.93 404.683C1487.37 406.948 1500.74 407.576 1514.19 404.893C1524.04 402.928 1532.56 398.013 1541.28 393.462C1548.5 389.689 1555.84 386.125 1563.17 382.561C1563.82 382.246 1565.21 382.31 1565.53 382.738C1566 383.349 1566.11 384.58 1565.82 385.326C1565.49 386.141 1564.61 386.819 1563.83 387.359C1560.55 389.625 1557.22 391.817 1553.91 394.035C1553.96 394.169 1554.02 394.304 1554.08 394.439Z" fill="white"/>
<path d="M1342.76 348.506C1352.46 342.127 1362.34 336.012 1373.55 332.484C1396.94 325.119 1416.8 331.058 1433.27 348.668C1439.49 355.318 1445.09 362.535 1451.18 369.307C1460.91 380.115 1472.87 385.404 1487.79 384.813C1502.38 384.235 1515.96 380.295 1529.15 374.656C1536.89 371.347 1544.38 367.456 1552.01 363.879C1553.61 363.131 1555.27 362.433 1556.99 362.068C1557.74 361.908 1559.12 362.413 1559.43 363.018C1559.82 363.761 1559.76 365.191 1559.25 365.846C1558.31 367.076 1557.03 368.145 1555.69 368.965C1541.03 377.925 1525.62 385.287 1509.04 390.086C1500.18 392.654 1491.09 393.466 1481.89 393.125C1468.51 392.629 1457.65 386.461 1448.47 377.459C1441.21 370.35 1434.69 362.506 1427.92 354.922C1419.27 345.235 1409.05 338.343 1395.74 336.95C1384.79 335.803 1374.58 338.661 1364.81 343.192C1350.19 349.966 1337.33 359.363 1325.34 369.97C1320.18 374.54 1315.23 379.356 1310.18 384.053C1309.73 384.474 1309.28 385.014 1308.73 385.186C1307.98 385.421 1306.61 385.659 1306.43 385.356C1306.02 384.668 1305.88 383.54 1306.17 382.792C1306.56 381.759 1307.41 380.878 1308.13 379.99C1318.09 367.784 1329.26 356.89 1342.76 348.506Z" fill="white"/>
<path d="M1330.13 328.944C1346.21 318.919 1360.11 312.842 1375.26 310.371C1392.91 307.491 1409.53 310.668 1424.57 320.791C1433.92 327.081 1441.95 334.695 1449.05 343.379C1453.08 348.3 1457.43 352.962 1461.75 357.647C1471.9 368.68 1484.61 370.964 1498.29 366.619C1508.82 363.276 1518.86 358.418 1529.11 354.236C1534.94 351.859 1540.77 349.481 1546.6 347.118C1547.17 346.886 1547.83 346.511 1548.37 346.619C1549.48 346.841 1551.09 347.075 1551.45 347.808C1551.8 348.52 1551.16 350.29 1550.4 350.849C1548.2 352.462 1545.7 353.68 1543.34 355.085C1530.03 363.015 1515.96 369.244 1501.13 373.802C1495.2 375.624 1489.17 376.303 1482.99 376.14C1472.12 375.854 1463.64 370.778 1456.6 363.049C1449.81 355.597 1443.53 347.678 1436.58 340.39C1420.7 323.748 1401.55 314.384 1377.97 317.52C1359.03 320.04 1341.89 327.346 1327.33 339.894C1322.31 344.217 1317.65 348.955 1312.82 353.494C1312.24 354.038 1311.68 354.691 1310.98 355C1310.11 355.384 1309.1 355.462 1308.15 355.672C1308.08 354.674 1307.59 353.431 1308.01 352.72C1309.75 349.777 1311.38 346.607 1313.76 344.23C1319.88 338.128 1326.38 332.408 1330.13 328.944Z" fill="white"/>
<path d="M1332.88 312.05C1346.09 304.192 1359.66 296.989 1374.25 292.066C1401.64 282.826 1426.01 287.811 1446.9 308.133C1453.75 314.794 1460.71 321.352 1467.87 327.682C1477.46 336.171 1488.66 339.776 1501.59 338.064C1511.15 336.8 1520.45 334.677 1529.57 331.619C1532 330.802 1534.48 330.075 1536.97 329.442C1538.54 329.044 1540.33 328.789 1541.15 330.653C1542.01 332.594 1540.52 333.719 1539.06 334.35C1533.61 336.695 1528.19 339.159 1522.57 341.047C1517.21 342.852 1511.64 344.115 1506.12 345.407C1488.07 349.624 1472.6 344.696 1459.36 332.146C1452.75 325.875 1446.11 319.634 1439.6 313.257C1419.48 293.555 1396.04 290.267 1370.6 300.479C1356.73 306.049 1343.55 313.309 1330.06 319.815C1328.7 320.47 1327.43 321.416 1326 321.774C1324.92 322.047 1323.65 321.602 1322.46 321.477C1322.91 320.357 1323.05 318.832 1323.88 318.191C1326.75 315.978 1329.86 314.073 1332.88 312.05Z" fill="white"/>
</g>
<mask id="mask7_342_13210" style="mask-type:luminance" maskUnits="userSpaceOnUse" x="10" y="0" width="1426" height="796">
<path d="M1436 0H10V796H1436V0Z" fill="white"/>
</mask>
<g mask="url(#mask7_342_13210)">
<path d="M-76.9795 582.036C-76.9795 582.036 46.8419 524.339 239.536 661.163C432.229 797.987 427.247 837.55 531.9 857.332C636.553 877.113 538.675 718.86 722.999 689.187C907.323 659.513 947.19 863.925 947.19 863.925" stroke="white" stroke-width="2" stroke-miterlimit="10"/>
</g>
<path d="M112.605 528.238C117.066 514.853 135.327 507.523 145.548 513.631C148.556 515.429 151.392 518.897 152.479 522.193C155.068 530.033 147.623 541.947 138.605 545.79C130.289 549.333 119.379 546.18 115.051 538.198C113.173 534.733 113.078 530.315 112.605 528.238Z" fill="white"/>
<path d="M114.534 588.743C122.256 590.77 125.612 596.483 123.669 604.298C121.125 614.529 109.115 621.206 98.3977 618.347C89.1666 615.885 84.6513 609.334 86.8549 601.6C89.5788 592.042 103.127 585.75 114.534 588.743Z" fill="white"/>
<path d="M50.0392 559.693C53.1808 549.318 65.9335 541.97 75.6136 544.956C82.6578 547.13 86.7431 554.307 84.8247 561.138C82.4049 569.755 66.9573 578.607 58.6732 576.124C51.8807 574.088 47.947 566.603 50.0392 559.693Z" fill="white"/>
<path d="M159.371 589.044C157.697 587.02 154.353 584.234 152.716 580.675C150.727 576.352 152.696 572.016 156.792 569.638C161.535 566.884 166.513 564.1 171.76 562.753C177.079 561.386 182.105 563.55 184.661 568.9C187.203 574.222 185.626 578.9 181.382 582.75C175.695 587.907 169.124 590.525 159.371 589.044Z" fill="white"/>
<path d="M133.976 671.394C126.183 669.051 122.65 663.512 124.846 657.077C127.386 649.631 138.684 643.806 146.132 646.103C152.076 647.936 155.755 655.381 153.929 661.881C151.8 669.454 142.413 673.93 133.976 671.394Z" fill="white"/>
<path d="M88.0033 636.321C94.4916 638.063 97.8661 643.091 96.2819 648.658C94.515 654.868 82.3294 661.638 76.2589 659.784C71.2746 658.262 67.8622 652.633 68.9206 647.683C70.585 639.9 80.1425 634.209 88.0033 636.321Z" fill="white"/>
<path d="M183.617 668.996C177.692 667.366 174.563 660.18 176.746 653.225C178.714 646.964 186.059 643.94 193.833 646.19C199.235 647.753 202.019 652.781 200.455 658.148C198.462 664.985 189.657 670.656 183.617 668.996Z" fill="white"/>
<path d="M168.549 610.362C174.154 612.163 177.349 617.929 175.838 623.513C174.12 629.862 163.95 634.477 156.653 632.218C151.714 630.689 148.974 626.017 150.267 621.329C151.895 615.431 163.205 608.645 168.549 610.362Z" fill="white"/>
<path d="M1356 146.187C1351.95 148.183 1348.25 150.438 1344.26 151.905C1324.31 159.229 1313.38 145.988 1313.93 132.06C1313.97 131.231 1313.85 130.396 1313.77 129.081C1312.15 129.303 1310.74 129.696 1309.34 129.653C1304.86 129.518 1300.16 130.031 1295.98 128.801C1289.63 126.926 1286.44 121.766 1285.74 115.22C1285.01 108.375 1286.8 102.011 1289.69 95.9028C1291.43 92.2291 1293.34 88.636 1295.41 84.551C1293.24 83.5991 1291.13 82.771 1289.11 81.7639C1282.32 78.3798 1279.25 72.4385 1281.34 65.2314C1282.45 61.4007 1284.3 57.5224 1286.74 54.3815C1293.4 45.83 1302.33 40.2757 1312.69 37.0088C1313.71 36.6882 1315 36.1332 1315.81 36.4825C1317.23 37.0972 1318.86 38.1088 1319.46 39.389C1319.79 40.1088 1318.44 41.965 1317.43 42.8163C1316.52 43.5846 1315.02 43.6432 1313.8 44.0832C1305.95 46.9256 1298.76 50.9587 1293.52 57.4715C1291.06 60.535 1289.34 64.4564 1288.26 68.2617C1287.27 71.7122 1289.14 74.1731 1292.99 75.6446C1296.29 76.905 1299.79 78.9746 1303.08 75.3008C1308.62 69.1053 1315.2 64.2242 1322.99 61.2426C1326.14 60.0364 1329.67 59.2238 1333.02 59.2526C1338.87 59.3023 1341.96 64.6079 1339.05 69.6824C1337.52 72.3534 1334.97 74.7126 1332.37 76.4605C1325.82 80.8595 1318.4 83.3548 1310.54 84.0093C1305.71 84.4117 1302.36 86.2856 1300.49 90.6713C1297.97 96.5739 1294.76 102.312 1293.19 108.458C1290.54 118.834 1296.66 124.603 1307.28 122.718C1312.65 121.766 1316.48 119.766 1318.67 113.966C1322.55 103.711 1329.41 95.3921 1339.08 89.6962C1342.85 87.4807 1346.83 85.8312 1351.35 86.1607C1356.99 86.5719 1360.28 90.9533 1357.78 95.9891C1355.65 100.299 1352.64 104.639 1348.93 107.627C1342.08 113.141 1334.56 117.88 1327.07 122.547C1321.57 125.976 1320.04 128.811 1321.35 135.883C1322.51 142.14 1326.69 146.516 1332.43 146.795C1340.2 147.173 1346.71 143.769 1352.45 138.972C1353.47 138.118 1353.43 135.918 1353.72 134.312C1354.6 129.273 1355.01 124.111 1356.39 119.217C1357.17 116.481 1359.23 113.938 1361.22 111.749C1363.39 109.34 1366.45 108.654 1369.51 110.204C1372.37 111.648 1373.28 114.321 1372.89 117.289C1372.58 119.606 1372.16 122.027 1371.16 124.11C1369.04 128.553 1366.62 132.867 1364.13 137.119C1362.08 140.614 1362.2 143.003 1365.1 146.292C1367.48 149.002 1369.75 149.666 1373.18 147.899C1375.83 146.531 1378.21 144.604 1380.59 142.778C1382.36 141.429 1383.97 139.844 1386.27 141.657C1388.07 143.08 1388.13 145.749 1385.59 147.746C1381.92 150.648 1377.98 153.496 1373.71 155.319C1368.67 157.466 1363.92 155.66 1360.24 151.631C1358.68 149.91 1357.37 147.957 1356 146.187ZM1327.36 113.635C1338.85 108.452 1348.33 100.07 1350.31 93.6796C1341.05 94.7829 1331.96 102.47 1327.36 113.635ZM1331.74 66.8433C1325.06 67.0611 1318.27 70.5193 1314.36 75.6889C1322.96 74.4053 1328 71.8437 1331.74 66.8433Z" fill="white"/>
</svg>
